<?xml version="1.0" encoding="UTF-8"?>
<svg xmlns="http://www.w3.org/2000/svg" xmlns:xlink="http://www.w3.org/1999/xlink" width="0" height="0">
<!-- simple-icons -->
<!-- https://github.com/simple-icons/simple-icons/blob/develop/LICENSE.md -->
<symbol id="css3" role="img" viewBox="0 0 24 24"><title>CSS3</title><path d="M1.5 0h21l-1.91 21.563L11.977 24l-8.565-2.438L1.5 0zm17.09 4.413L5.41 4.41l.213 2.622 10.125.002-.255 2.716h-6.64l.24 2.573h6.182l-.366 3.523-2.91.804-2.956-.81-.188-2.11h-2.61l.29 3.855L12 19.288l5.373-1.53L18.59 4.414z"/></symbol>
<!-- simple-icons -->
<!-- https://github.com/simple-icons/simple-icons/blob/develop/LICENSE.md -->
<symbol id="gatsby" role="img" viewBox="0 0 24 24"><title>Gatsby</title><path d="M12 0C5.4 0 0 5.4 0 12s5.4 12 12 12 12-5.4 12-12S18.6 0 12 0zm0 2.571c3.171 0 5.915 1.543 7.629 3.858l-1.286 1.115C16.886 5.572 14.571 4.286 12 4.286c-3.343 0-6.171 2.143-7.286 5.143l9.857 9.857c2.486-.857 4.373-3 4.973-5.572h-4.115V12h6c0 4.457-3.172 8.228-7.372 9.17L2.83 9.944C3.772 5.743 7.543 2.57 12 2.57zm-9.429 9.6l9.344 9.258c-2.4-.086-4.801-.943-6.601-2.743-1.8-1.8-2.743-4.201-2.743-6.515z"/></symbol>
<!-- simple-icons -->
<!-- https://github.com/simple-icons/simple-icons/blob/develop/LICENSE.md -->
<symbol id="git" role="img" viewBox="0 0 24 24"><title>Git</title><path d="M23.546 10.93L13.067.452c-.604-.603-1.582-.603-2.188 0L8.708 2.627l2.76 2.76c.645-.215 1.379-.07 1.889.441.516.515.658 1.258.438 1.9l2.658 2.66c.645-.223 1.387-.078 1.9.435.721.72.721 1.884 0 2.604-.719.719-1.881.719-2.6 0-.539-.541-.674-1.337-.404-1.996L12.86 8.955v6.525c.176.086.342.203.488.348.713.721.713 1.883 0 2.6-.719.721-1.889.721-2.609 0-.719-.719-.719-1.879 0-2.598.182-.18.387-.316.605-.406V8.835c-.217-.091-.424-.222-.6-.401-.545-.545-.676-1.342-.396-2.009L7.636 3.7.45 10.881c-.6.605-.6 1.584 0 2.189l10.48 10.477c.604.604 1.582.604 2.186 0l10.43-10.43c.605-.603.605-1.582 0-2.187"/></symbol>
<!-- simple-icons -->
<!-- https://github.com/simple-icons/simple-icons/blob/develop/LICENSE.md -->
<symbol id="graphql" role="img" viewBox="0 0 24 24"><title>GraphQL</title><path d="M12.002 0a2.138 2.138 0 1 0 0 4.277 2.138 2.138 0 1 0 0-4.277zm8.54 4.931a2.138 2.138 0 1 0 0 4.277 2.138 2.138 0 1 0 0-4.277zm0 9.862a2.138 2.138 0 1 0 0 4.277 2.138 2.138 0 1 0 0-4.277zm-8.54 4.931a2.138 2.138 0 1 0 0 4.276 2.138 2.138 0 1 0 0-4.276zm-8.542-4.93a2.138 2.138 0 1 0 0 4.276 2.138 2.138 0 1 0 0-4.277zm0-9.863a2.138 2.138 0 1 0 0 4.277 2.138 2.138 0 1 0 0-4.277zm8.542-3.378L2.953 6.777v10.448l9.049 5.224 9.047-5.224V6.777zm0 1.601 7.66 13.27H4.34zm-1.387.371L3.97 15.037V7.363zm2.774 0 6.646 3.838v7.674zM5.355 17.44h13.293l-6.646 3.836z"/></symbol>
<!-- simple-icons -->
<!-- https://github.com/simple-icons/simple-icons/blob/develop/LICENSE.md -->
<symbol id="html5" role="img" viewBox="0 0 24 24"><title>HTML5</title><path d="M1.5 0h21l-1.91 21.563L11.977 24l-8.564-2.438L1.5 0zm7.031 9.75l-.232-2.718 10.059.003.23-2.622L5.412 4.41l.698 8.01h9.126l-.326 3.426-2.91.804-2.955-.81-.188-2.11H6.248l.33 4.171L12 19.351l5.379-1.443.744-8.157H8.531z"/></symbol>
<!-- simple-icons -->
<!-- https://github.com/simple-icons/simple-icons/blob/develop/LICENSE.md -->
<symbol id="javascript" role="img" viewBox="0 0 24 24"><title>JavaScript</title><path d="M0 0h24v24H0V0zm22.034 18.276c-.175-1.095-.888-2.015-3.003-2.873-.736-.345-1.554-.585-1.797-1.14-.091-.33-.105-.51-.046-.705.15-.646.915-.84 1.515-.66.39.12.75.42.976.9 1.034-.676 1.034-.676 1.755-1.125-.27-.42-.404-.601-.586-.78-.63-.705-1.469-1.065-2.834-1.034l-.705.089c-.676.165-1.32.525-1.71 1.005-1.14 1.291-.811 3.541.569 4.471 1.365 1.02 3.361 1.244 3.616 2.205.24 1.17-.87 1.545-1.966 1.41-.811-.18-1.26-.586-1.755-1.336l-1.83 1.051c.21.48.45.689.81 1.109 1.74 1.756 6.09 1.666 6.871-1.004.029-.09.24-.705.074-1.65l.046.067zm-8.983-7.245h-2.248c0 1.938-.009 3.864-.009 5.805 0 1.232.063 2.363-.138 2.711-.33.689-1.18.601-1.566.48-.396-.196-.597-.466-.83-.855-.063-.105-.11-.196-.127-.196l-1.825 1.125c.305.63.75 1.172 1.324 1.517.855.51 2.004.675 3.207.405.783-.226 1.458-.691 1.811-1.411.51-.93.402-2.07.397-3.346.012-2.054 0-4.109 0-6.179l.004-.056z"/></symbol>
<!-- simple-icons -->
<!-- https://github.com/simple-icons/simple-icons/blob/develop/LICENSE.md -->
<symbol id="jest" role="img" viewBox="0 0 24 24"><title>Jest</title><path d="M22.251 11.82a3.117 3.117 0 0 0-2.328-3.01L22.911 0H8.104L11.1 8.838a3.116 3.116 0 0 0-2.244 2.988c0 1.043.52 1.967 1.313 2.536a8.279 8.279 0 0 1-1.084 1.244 8.14 8.14 0 0 1-2.55 1.647c-.834-.563-1.195-1.556-.869-2.446a3.11 3.11 0 0 0-.91-6.08 3.117 3.117 0 0 0-3.113 3.113c0 .848.347 1.626.903 2.182-.048.097-.097.195-.146.299-.465.959-.993 2.043-1.195 3.259-.403 2.432.257 4.384 1.849 5.489A5.093 5.093 0 0 0 5.999 24c1.827 0 3.682-.917 5.475-1.807 1.279-.632 2.599-1.292 3.898-1.612.48-.118.98-.187 1.508-.264 1.07-.153 2.175-.312 3.168-.89a4.482 4.482 0 0 0 2.182-3.091c.174-.994 0-1.994-.444-2.87.298-.48.465-1.042.465-1.647zm-1.355 0c0 .965-.785 1.75-1.75 1.75a1.753 1.753 0 0 1-1.085-3.126l.007-.007c.056-.042.118-.084.18-.125 0 0 .008 0 .008-.007.028-.014.055-.035.083-.05.007 0 .014-.006.021-.006.028-.014.063-.028.097-.042.035-.014.07-.027.098-.041.007 0 .013-.007.02-.007.028-.007.056-.021.084-.028.007 0 .02-.007.028-.007.034-.007.062-.014.097-.02h.007l.104-.022c.007 0 .02 0 .028-.007.028 0 .055-.007.083-.007h.035c.035 0 .07-.007.111-.007h.09c.028 0 .05 0 .077.007h.014c.055.007.111.014.167.028a1.766 1.766 0 0 1 1.396 1.723zM10.043 1.39h10.93l-2.509 7.4c-.104.02-.208.055-.312.09l-2.64-5.385-2.648 5.35c-.104-.034-.216-.055-.327-.076l-2.494-7.38zm4.968 9.825a3.083 3.083 0 0 0-.938-1.668l1.438-2.904 1.452 2.967c-.43.43-.743.98-.868 1.605H15.01zm-3.481-1.098c.034-.007.062-.014.097-.02h.02c.029-.008.056-.008.084-.015h.028c.028 0 .049-.007.076-.007h.271c.028 0 .049.007.07.007.014 0 .02 0 .035.007.027.007.048.007.076.014.007 0 .014 0 .028.007l.097.02h.007c.028.008.056.015.083.029.007 0 .014.007.028.007.021.007.049.014.07.027.007 0 .014.007.02.007.028.014.056.021.084.035h.007a.374.374 0 0 1 .09.049h.007c.028.014.056.034.084.048.007 0 .007.007.013.007.028.014.05.035.077.049l.007.007c.083.062.16.132.236.201l.007.007a1.747 1.747 0 0 1 .48 1.209 1.752 1.752 0 0 1-3.502 0 1.742 1.742 0 0 1 1.32-1.695zm-6.838-.049c.966 0 1.751.786 1.751 1.751s-.785 1.751-1.75 1.751-1.752-.785-1.752-1.75.786-1.752 1.751-1.752zm16.163 6.025a3.07 3.07 0 0 1-1.508 2.133c-.758.438-1.689.577-2.669.716a17.29 17.29 0 0 0-1.64.291c-1.445.355-2.834 1.05-4.182 1.717-1.724.854-3.35 1.66-4.857 1.66a3.645 3.645 0 0 1-2.154-.688c-1.529-1.056-1.453-3.036-1.272-4.12.167-1.015.632-1.966 1.077-2.877.028-.055.049-.104.077-.16.152.056.312.098.479.126-.264 1.473.486 2.994 1.946 3.745l.264.139.284-.104c1.216-.431 2.342-1.133 3.336-2.071a9.334 9.334 0 0 0 1.445-1.716c.16.027.32.034.48.034a3.117 3.117 0 0 0 3.008-2.327h1.167a3.109 3.109 0 0 0 3.01 2.327c.576 0 1.11-.16 1.57-.43.18.52.236 1.063.139 1.605z"/></symbol>
<!-- tabler-icons -->
<!-- https://github.com/tabler/tabler-icons/blob/master/LICENSE -->
<symbol id="menu-2" class="icon icon-tabler icon-tabler-menu-2" viewBox="0 0 24 24" stroke-width="2" stroke="currentColor" fill="none" stroke-linecap="round" stroke-linejoin="round">
  <path stroke="none" d="M0 0h24v24H0z" fill="none"/>
  <path d="M4 6l16 0" />
  <path d="M4 12l16 0" />
  <path d="M4 18l16 0" />
</symbol>



<!-- simple-icons -->
<!-- https://github.com/simple-icons/simple-icons/blob/develop/LICENSE.md -->
<symbol id="nextdotjs" role="img" viewBox="0 0 24 24"><title>Next.js</title><path d="M11.5725 0c-.1763 0-.3098.0013-.3584.0067-.0516.0053-.2159.021-.3636.0328-3.4088.3073-6.6017 2.1463-8.624 4.9728C1.1004 6.584.3802 8.3666.1082 10.255c-.0962.659-.108.8537-.108 1.7474s.012 1.0884.108 1.7476c.652 4.506 3.8591 8.2919 8.2087 9.6945.7789.2511 1.6.4223 2.5337.5255.3636.04 1.9354.04 2.299 0 1.6117-.1783 2.9772-.577 4.3237-1.2643.2065-.1056.2464-.1337.2183-.1573-.0188-.0139-.8987-1.1938-1.9543-2.62l-1.919-2.592-2.4047-3.5583c-1.3231-1.9564-2.4117-3.556-2.4211-3.556-.0094-.0026-.0187 1.5787-.0235 3.509-.0067 3.3802-.0093 3.5162-.0516 3.596-.061.115-.108.1618-.2064.2134-.075.0374-.1408.0445-.495.0445h-.406l-.1078-.068a.4383.4383 0 01-.1572-.1712l-.0493-.1056.0053-4.703.0067-4.7054.0726-.0915c.0376-.0493.1174-.1125.1736-.143.0962-.047.1338-.0517.5396-.0517.4787 0 .5584.0187.6827.1547.0353.0377 1.3373 1.9987 2.895 4.3608a10760.433 10760.433 0 004.7344 7.1706l1.9002 2.8782.096-.0633c.8518-.5536 1.7525-1.3418 2.4657-2.1627 1.5179-1.7429 2.4963-3.868 2.8247-6.134.0961-.6591.1078-.854.1078-1.7475 0-.8937-.012-1.0884-.1078-1.7476-.6522-4.506-3.8592-8.2919-8.2087-9.6945-.7672-.2487-1.5836-.42-2.4985-.5232-.169-.0176-1.0835-.0366-1.6123-.037zm4.0685 7.217c.3473 0 .4082.0053.4857.047.1127.0562.204.1642.237.2767.0186.061.0234 1.3653.0186 4.3044l-.0067 4.2175-.7436-1.14-.7461-1.14v-3.066c0-1.982.0093-3.0963.0234-3.1502.0375-.1313.1196-.2346.2323-.2955.0961-.0494.1313-.054.4997-.054z"/></symbol>
<!-- simple-icons -->
<!-- https://github.com/simple-icons/simple-icons/blob/develop/LICENSE.md -->
<symbol id="nodedotjs" role="img" viewBox="0 0 24 24"><title>Node.js</title><path d="M11.998,24c-0.321,0-0.641-0.084-0.922-0.247l-2.936-1.737c-0.438-0.245-0.224-0.332-0.08-0.383 c0.585-0.203,0.703-0.25,1.328-0.604c0.065-0.037,0.151-0.023,0.218,0.017l2.256,1.339c0.082,0.045,0.197,0.045,0.272,0l8.795-5.076 c0.082-0.047,0.134-0.141,0.134-0.238V6.921c0-0.099-0.053-0.192-0.137-0.242l-8.791-5.072c-0.081-0.047-0.189-0.047-0.271,0 L3.075,6.68C2.99,6.729,2.936,6.825,2.936,6.921v10.15c0,0.097,0.054,0.189,0.139,0.235l2.409,1.392 c1.307,0.654,2.108-0.116,2.108-0.89V7.787c0-0.142,0.114-0.253,0.256-0.253h1.115c0.139,0,0.255,0.112,0.255,0.253v10.021 c0,1.745-0.95,2.745-2.604,2.745c-0.508,0-0.909,0-2.026-0.551L2.28,18.675c-0.57-0.329-0.922-0.945-0.922-1.604V6.921 c0-0.659,0.353-1.275,0.922-1.603l8.795-5.082c0.557-0.315,1.296-0.315,1.848,0l8.794,5.082c0.57,0.329,0.924,0.944,0.924,1.603 v10.15c0,0.659-0.354,1.273-0.924,1.604l-8.794,5.078C12.643,23.916,12.324,24,11.998,24z M19.099,13.993 c0-1.9-1.284-2.406-3.987-2.763c-2.731-0.361-3.009-0.548-3.009-1.187c0-0.528,0.235-1.233,2.258-1.233 c1.807,0,2.473,0.389,2.747,1.607c0.024,0.115,0.129,0.199,0.247,0.199h1.141c0.071,0,0.138-0.031,0.186-0.081 c0.048-0.054,0.074-0.123,0.067-0.196c-0.177-2.098-1.571-3.076-4.388-3.076c-2.508,0-4.004,1.058-4.004,2.833 c0,1.925,1.488,2.457,3.895,2.695c2.88,0.282,3.103,0.703,3.103,1.269c0,0.983-0.789,1.402-2.642,1.402 c-2.327,0-2.839-0.584-3.011-1.742c-0.02-0.124-0.126-0.215-0.253-0.215h-1.137c-0.141,0-0.254,0.112-0.254,0.253 c0,1.482,0.806,3.248,4.655,3.248C17.501,17.007,19.099,15.91,19.099,13.993z"/></symbol>
<!-- simple-icons -->
<!-- https://github.com/simple-icons/simple-icons/blob/develop/LICENSE.md -->
<symbol id="postgresql" role="img" viewBox="0 0 24 24"><title>PostgreSQL</title><path d="M23.5594 14.7228a.5269.5269 0 0 0-.0563-.1191c-.139-.2632-.4768-.3418-1.0074-.2321-1.6533.3411-2.2935.1312-2.5256-.0191 1.342-2.0482 2.445-4.522 3.0411-6.8297.2714-1.0507.7982-3.5237.1222-4.7316a1.5641 1.5641 0 0 0-.1509-.235C21.6931.9086 19.8007.0248 17.5099.0005c-1.4947-.0158-2.7705.3461-3.1161.4794a9.449 9.449 0 0 0-.5159-.0816 8.044 8.044 0 0 0-1.3114-.1278c-1.1822-.0184-2.2038.2642-3.0498.8406-.8573-.3211-4.7888-1.645-7.2219.0788C.9359 2.1526.3086 3.8733.4302 6.3043c.0409.818.5069 3.334 1.2423 5.7436.4598 1.5065.9387 2.7019 1.4334 3.582.553.9942 1.1259 1.5933 1.7143 1.7895.4474.1491 1.1327.1441 1.8581-.7279.8012-.9635 1.5903-1.8258 1.9446-2.2069.4351.2355.9064.3625 1.39.3772a.0569.0569 0 0 0 .0004.0041 11.0312 11.0312 0 0 0-.2472.3054c-.3389.4302-.4094.5197-1.5002.7443-.3102.064-1.1344.2339-1.1464.8115-.0025.1224.0329.2309.0919.3268.2269.4231.9216.6097 1.015.6331 1.3345.3335 2.5044.092 3.3714-.6787-.017 2.231.0775 4.4174.3454 5.0874.2212.5529.7618 1.9045 2.4692 1.9043.2505 0 .5263-.0291.8296-.0941 1.7819-.3821 2.5557-1.1696 2.855-2.9059.1503-.8707.4016-2.8753.5388-4.1012.0169-.0703.0357-.1207.057-.1362.0007-.0005.0697-.0471.4272.0307a.3673.3673 0 0 0 .0443.0068l.2539.0223.0149.001c.8468.0384 1.9114-.1426 2.5312-.4308.6438-.2988 1.8057-1.0323 1.5951-1.6698zM2.371 11.8765c-.7435-2.4358-1.1779-4.8851-1.2123-5.5719-.1086-2.1714.4171-3.6829 1.5623-4.4927 1.8367-1.2986 4.8398-.5408 6.108-.13-.0032.0032-.0066.0061-.0098.0094-2.0238 2.044-1.9758 5.536-1.9708 5.7495-.0002.0823.0066.1989.0162.3593.0348.5873.0996 1.6804-.0735 2.9184-.1609 1.1504.1937 2.2764.9728 3.0892.0806.0841.1648.1631.2518.2374-.3468.3714-1.1004 1.1926-1.9025 2.1576-.5677.6825-.9597.5517-1.0886.5087-.3919-.1307-.813-.5871-1.2381-1.3223-.4796-.839-.9635-2.0317-1.4155-3.5126zm6.0072 5.0871c-.1711-.0428-.3271-.1132-.4322-.1772.0889-.0394.2374-.0902.4833-.1409 1.2833-.2641 1.4815-.4506 1.9143-1.0002.0992-.126.2116-.2687.3673-.4426a.3549.3549 0 0 0 .0737-.1298c.1708-.1513.2724-.1099.4369-.0417.156.0646.3078.26.3695.4752.0291.1016.0619.2945-.0452.4444-.9043 1.2658-2.2216 1.2494-3.1676 1.0128zm2.094-3.988-.0525.141c-.133.3566-.2567.6881-.3334 1.003-.6674-.0021-1.3168-.2872-1.8105-.8024-.6279-.6551-.9131-1.5664-.7825-2.5004.1828-1.3079.1153-2.4468.079-3.0586-.005-.0857-.0095-.1607-.0122-.2199.2957-.2621 1.6659-.9962 2.6429-.7724.4459.1022.7176.4057.8305.928.5846 2.7038.0774 3.8307-.3302 4.7363-.084.1866-.1633.3629-.2311.5454zm7.3637 4.5725c-.0169.1768-.0358.376-.0618.5959l-.146.4383a.3547.3547 0 0 0-.0182.1077c-.0059.4747-.054.6489-.115.8693-.0634.2292-.1353.4891-.1794 1.0575-.11 1.4143-.8782 2.2267-2.4172 2.5565-1.5155.3251-1.7843-.4968-2.0212-1.2217a6.5824 6.5824 0 0 0-.0769-.2266c-.2154-.5858-.1911-1.4119-.1574-2.5551.0165-.5612-.0249-1.9013-.3302-2.6462.0044-.2932.0106-.5909.019-.8918a.3529.3529 0 0 0-.0153-.1126 1.4927 1.4927 0 0 0-.0439-.208c-.1226-.4283-.4213-.7866-.7797-.9351-.1424-.059-.4038-.1672-.7178-.0869.067-.276.1831-.5875.309-.9249l.0529-.142c.0595-.16.134-.3257.213-.5012.4265-.9476 1.0106-2.2453.3766-5.1772-.2374-1.0981-1.0304-1.6343-2.2324-1.5098-.7207.0746-1.3799.3654-1.7088.5321a5.6716 5.6716 0 0 0-.1958.1041c.0918-1.1064.4386-3.1741 1.7357-4.4823a4.0306 4.0306 0 0 1 .3033-.276.3532.3532 0 0 0 .1447-.0644c.7524-.5706 1.6945-.8506 2.802-.8325.4091.0067.8017.0339 1.1742.081 1.939.3544 3.2439 1.4468 4.0359 2.3827.8143.9623 1.2552 1.9315 1.4312 2.4543-1.3232-.1346-2.2234.1268-2.6797.779-.9926 1.4189.543 4.1729 1.2811 5.4964.1353.2426.2522.4522.2889.5413.2403.5825.5515.9713.7787 1.2552.0696.087.1372.1714.1885.245-.4008.1155-1.1208.3825-1.0552 1.717-.0123.1563-.0423.4469-.0834.8148-.0461.2077-.0702.4603-.0994.7662zm.8905-1.6211c-.0405-.8316.2691-.9185.5967-1.0105a2.8566 2.8566 0 0 0 .135-.0406 1.202 1.202 0 0 0 .1342.103c.5703.3765 1.5823.4213 3.0068.1344-.2016.1769-.5189.3994-.9533.6011-.4098.1903-1.0957.333-1.7473.3636-.7197.0336-1.0859-.0807-1.1721-.151zm.5695-9.2712c-.0059.3508-.0542.6692-.1054 1.0017-.055.3576-.112.7274-.1264 1.1762-.0142.4368.0404.8909.0932 1.3301.1066.887.216 1.8003-.2075 2.7014a3.5272 3.5272 0 0 1-.1876-.3856c-.0527-.1276-.1669-.3326-.3251-.6162-.6156-1.1041-2.0574-3.6896-1.3193-4.7446.3795-.5427 1.3408-.5661 2.1781-.463zm.2284 7.0137a12.3762 12.3762 0 0 0-.0853-.1074l-.0355-.0444c.7262-1.1995.5842-2.3862.4578-3.4385-.0519-.4318-.1009-.8396-.0885-1.2226.0129-.4061.0666-.7543.1185-1.0911.0639-.415.1288-.8443.1109-1.3505.0134-.0531.0188-.1158.0118-.1902-.0457-.4855-.5999-1.938-1.7294-3.253-.6076-.7073-1.4896-1.4972-2.6889-2.0395.5251-.1066 1.2328-.2035 2.0244-.1859 2.0515.0456 3.6746.8135 4.8242 2.2824a.908.908 0 0 1 .0667.1002c.7231 1.3556-.2762 6.2751-2.9867 10.5405zm-8.8166-6.1162c-.025.1794-.3089.4225-.6211.4225a.5821.5821 0 0 1-.0809-.0056c-.1873-.026-.3765-.144-.5059-.3156-.0458-.0605-.1203-.178-.1055-.2844.0055-.0401.0261-.0985.0925-.1488.1182-.0894.3518-.1226.6096-.0867.3163.0441.6426.1938.6113.4186zm7.9305-.4114c.0111.0792-.049.201-.1531.3102-.0683.0717-.212.1961-.4079.2232a.5456.5456 0 0 1-.075.0052c-.2935 0-.5414-.2344-.5607-.3717-.024-.1765.2641-.3106.5611-.352.297-.0414.6111.0088.6356.1851z"/></symbol>
<!-- simple-icons -->
<!-- https://github.com/simple-icons/simple-icons/blob/develop/LICENSE.md -->
<symbol id="prisma" role="img" viewBox="0 0 24 24"><title>Prisma</title><path d="M21.8068 18.2848L13.5528.7565c-.207-.4382-.639-.7273-1.1286-.7541-.5023-.0293-.9523.213-1.2062.6253L2.266 15.1271c-.2773.4518-.2718 1.0091.0158 1.4555l4.3759 6.7786c.2608.4046.7127.6388 1.1823.6388.1332 0 .267-.0188.3987-.0577l12.7019-3.7568c.3891-.1151.7072-.3904.8737-.7553s.1633-.7828-.0075-1.1454zm-1.8481.7519L9.1814 22.2242c-.3292.0975-.6448-.1873-.5756-.5194l3.8501-18.4386c.072-.3448.5486-.3996.699-.0803l7.1288 15.138c.1344.2856-.019.6224-.325.7128z"/></symbol>
<!-- simple-icons -->
<!-- https://github.com/simple-icons/simple-icons/blob/develop/LICENSE.md -->
<symbol id="react" role="img" viewBox="0 0 24 24"><title>React</title><path d="M14.23 12.004a2.236 2.236 0 0 1-2.235 2.236 2.236 2.236 0 0 1-2.236-2.236 2.236 2.236 0 0 1 2.235-2.236 2.236 2.236 0 0 1 2.236 2.236zm2.648-10.69c-1.346 0-3.107.96-4.888 2.622-1.78-1.653-3.542-2.602-4.887-2.602-.41 0-.783.093-1.106.278-1.375.793-1.683 3.264-.973 6.365C1.98 8.917 0 10.42 0 12.004c0 1.59 1.99 3.097 5.043 4.03-.704 3.113-.39 5.588.988 6.38.32.187.69.275 1.102.275 1.345 0 3.107-.96 4.888-2.624 1.78 1.654 3.542 2.603 4.887 2.603.41 0 .783-.09 1.106-.275 1.374-.792 1.683-3.263.973-6.365C22.02 15.096 24 13.59 24 12.004c0-1.59-1.99-3.097-5.043-4.032.704-3.11.39-5.587-.988-6.38-.318-.184-.688-.277-1.092-.278zm-.005 1.09v.006c.225 0 .406.044.558.127.666.382.955 1.835.73 3.704-.054.46-.142.945-.25 1.44-.96-.236-2.006-.417-3.107-.534-.66-.905-1.345-1.727-2.035-2.447 1.592-1.48 3.087-2.292 4.105-2.295zm-9.77.02c1.012 0 2.514.808 4.11 2.28-.686.72-1.37 1.537-2.02 2.442-1.107.117-2.154.298-3.113.538-.112-.49-.195-.964-.254-1.42-.23-1.868.054-3.32.714-3.707.19-.09.4-.127.563-.132zm4.882 3.05c.455.468.91.992 1.36 1.564-.44-.02-.89-.034-1.345-.034-.46 0-.915.01-1.36.034.44-.572.895-1.096 1.345-1.565zM12 8.1c.74 0 1.477.034 2.202.093.406.582.802 1.203 1.183 1.86.372.64.71 1.29 1.018 1.946-.308.655-.646 1.31-1.013 1.95-.38.66-.773 1.288-1.18 1.87-.728.063-1.466.098-2.21.098-.74 0-1.477-.035-2.202-.093-.406-.582-.802-1.204-1.183-1.86-.372-.64-.71-1.29-1.018-1.946.303-.657.646-1.313 1.013-1.954.38-.66.773-1.286 1.18-1.868.728-.064 1.466-.098 2.21-.098zm-3.635.254c-.24.377-.48.763-.704 1.16-.225.39-.435.782-.635 1.174-.265-.656-.49-1.31-.676-1.947.64-.15 1.315-.283 2.015-.386zm7.26 0c.695.103 1.365.23 2.006.387-.18.632-.405 1.282-.66 1.933-.2-.39-.41-.783-.64-1.174-.225-.392-.465-.774-.705-1.146zm3.063.675c.484.15.944.317 1.375.498 1.732.74 2.852 1.708 2.852 2.476-.005.768-1.125 1.74-2.857 2.475-.42.18-.88.342-1.355.493-.28-.958-.646-1.956-1.1-2.98.45-1.017.81-2.01 1.085-2.964zm-13.395.004c.278.96.645 1.957 1.1 2.98-.45 1.017-.812 2.01-1.086 2.964-.484-.15-.944-.318-1.37-.5-1.732-.737-2.852-1.706-2.852-2.474 0-.768 1.12-1.742 2.852-2.476.42-.18.88-.342 1.356-.494zm11.678 4.28c.265.657.49 1.312.676 1.948-.64.157-1.316.29-2.016.39.24-.375.48-.762.705-1.158.225-.39.435-.788.636-1.18zm-9.945.02c.2.392.41.783.64 1.175.23.39.465.772.705 1.143-.695-.102-1.365-.23-2.006-.386.18-.63.406-1.282.66-1.933zM17.92 16.32c.112.493.2.968.254 1.423.23 1.868-.054 3.32-.714 3.708-.147.09-.338.128-.563.128-1.012 0-2.514-.807-4.11-2.28.686-.72 1.37-1.536 2.02-2.44 1.107-.118 2.154-.3 3.113-.54zm-11.83.01c.96.234 2.006.415 3.107.532.66.905 1.345 1.727 2.035 2.446-1.595 1.483-3.092 2.295-4.11 2.295-.22-.005-.406-.05-.553-.132-.666-.38-.955-1.834-.73-3.703.054-.46.142-.944.25-1.438zm4.56.64c.44.02.89.034 1.345.034.46 0 .915-.01 1.36-.034-.44.572-.895 1.095-1.345 1.565-.455-.47-.91-.993-1.36-1.565z"/></symbol>
<!-- simple-icons -->
<!-- https://github.com/simple-icons/simple-icons/blob/develop/LICENSE.md -->
<symbol id="redux" role="img" viewBox="0 0 24 24"><title>Redux</title><path d="M16.634 16.504c.87-.075 1.543-.84 1.5-1.754-.047-.914-.796-1.648-1.709-1.648h-.061a1.71 1.71 0 00-1.648 1.769c.03.479.226.869.494 1.153-1.048 2.038-2.621 3.536-5.005 4.795-1.603.838-3.296 1.154-4.944.93-1.378-.195-2.456-.81-3.116-1.799-.988-1.499-1.078-3.116-.255-4.734.6-1.17 1.499-2.023 2.099-2.443a9.96 9.96 0 01-.42-1.543C-.868 14.408-.416 18.752.932 20.805c1.004 1.498 3.057 2.456 5.304 2.456.6 0 1.23-.044 1.843-.194 3.897-.749 6.848-3.086 8.541-6.532zm5.348-3.746c-2.32-2.728-5.738-4.226-9.634-4.226h-.51c-.253-.554-.837-.899-1.498-.899h-.045c-.943 0-1.678.81-1.647 1.753.03.898.794 1.648 1.708 1.648h.074a1.69 1.69 0 001.499-1.049h.555c2.309 0 4.495.674 6.488 1.992 1.527 1.005 2.622 2.323 3.237 3.897.538 1.288.509 2.547-.045 3.597-.855 1.647-2.294 2.517-4.196 2.517-1.199 0-2.367-.375-2.967-.644-.36.298-.96.793-1.394 1.093 1.318.598 2.652.943 3.94.943 2.922 0 5.094-1.647 5.919-3.236.898-1.798.824-4.824-1.47-7.416zM6.49 17.042c.03.899.793 1.648 1.708 1.648h.06a1.688 1.688 0 001.648-1.768c0-.9-.779-1.647-1.693-1.647h-.06c-.06 0-.15 0-.226.029-1.243-2.098-1.768-4.347-1.572-6.772.12-1.828.72-3.417 1.797-4.735.9-1.124 2.593-1.68 3.747-1.708 3.236-.061 4.585 3.971 4.689 5.574l1.498.45C17.741 3.197 14.686.62 11.764.62 9.02.62 6.49 2.613 5.47 5.535 4.077 9.43 4.991 13.177 6.7 16.174c-.15.195-.24.539-.21.868z"/></symbol>
<!-- simple-icons -->
<!-- https://github.com/simple-icons/simple-icons/blob/develop/LICENSE.md -->
<symbol id="remix" role="img" viewBox="0 0 24 24"><title>Remix</title><path d="M21.511 18.508c.216 2.773.216 4.073.216 5.492H15.31c0-.309.006-.592.011-.878.018-.892.036-1.821-.109-3.698-.19-2.747-1.374-3.358-3.55-3.358H1.574v-5h10.396c2.748 0 4.122-.835 4.122-3.049 0-1.946-1.374-3.125-4.122-3.125H1.573V0h11.541c6.221 0 9.313 2.938 9.313 7.632 0 3.511-2.176 5.8-5.114 6.182 2.48.497 3.93 1.909 4.198 4.694ZM1.573 24v-3.727h6.784c1.133 0 1.379.84 1.379 1.342V24Z"/></symbol>
<!-- simple-icons -->
<!-- https://github.com/simple-icons/simple-icons/blob/develop/LICENSE.md -->
<symbol id="sass" role="img" viewBox="0 0 24 24"><title>Sass</title><path d="M12 0c6.627 0 12 5.373 12 12s-5.373 12-12 12S0 18.627 0 12 5.373 0 12 0zM9.615 15.998c.175.645.156 1.248-.024 1.792l-.065.18c-.024.061-.052.12-.078.176-.14.29-.326.56-.555.81-.698.759-1.672 1.047-2.09.805-.45-.262-.226-1.335.584-2.19.871-.918 2.12-1.509 2.12-1.509v-.003l.108-.061zm9.911-10.861c-.542-2.133-4.077-2.834-7.422-1.645-1.989.707-4.144 1.818-5.693 3.267C4.568 8.48 4.275 9.98 4.396 10.607c.427 2.211 3.457 3.657 4.703 4.73v.006c-.367.18-3.056 1.529-3.686 2.925-.675 1.47.105 2.521.615 2.655 1.575.436 3.195-.36 4.065-1.649.84-1.261.766-2.881.404-3.676.496-.135 1.08-.195 1.83-.104 2.101.24 2.521 1.56 2.43 2.1-.09.539-.523.854-.674.944-.15.091-.195.12-.181.181.015.09.091.09.21.075.165-.03 1.096-.45 1.141-1.471.045-1.29-1.186-2.729-3.375-2.7-.9.016-1.471.091-1.875.256-.03-.045-.061-.075-.105-.105-1.35-1.455-3.855-2.475-3.75-4.41.03-.705.285-2.564 4.8-4.814 3.705-1.846 6.661-1.335 7.171-.21.733 1.604-1.576 4.59-5.431 5.024-1.47.165-2.235-.404-2.431-.615-.209-.225-.239-.24-.314-.194-.12.06-.045.255 0 .375.12.3.585.825 1.396 1.095.704.225 2.43.359 4.5-.45 2.324-.899 4.139-3.405 3.614-5.505l.073.067z"/></symbol>
<!-- simple-icons -->
<!-- https://github.com/simple-icons/simple-icons/blob/develop/LICENSE.md -->
<symbol id="storybook" role="img" viewBox="0 0 24 24"><title>Storybook</title><path d="M16.71.243l-.12 2.71a.18.18 0 00.29.15l1.06-.8.9.7a.18.18 0 00.28-.14l-.1-2.76 1.33-.1a1.2 1.2 0 011.279 1.2v21.596a1.2 1.2 0 01-1.26 1.2l-16.096-.72a1.2 1.2 0 01-1.15-1.16l-.75-19.797a1.2 1.2 0 011.13-1.27L16.7.222zM13.64 9.3c0 .47 3.16.24 3.59-.08 0-3.2-1.72-4.89-4.859-4.89-3.15 0-4.899 1.72-4.899 4.29 0 4.45 5.999 4.53 5.999 6.959 0 .7-.32 1.1-1.05 1.1-.96 0-1.35-.49-1.3-2.16 0-.36-3.649-.48-3.769 0-.27 4.03 2.23 5.2 5.099 5.2 2.79 0 4.969-1.49 4.969-4.18 0-4.77-6.099-4.64-6.099-6.999 0-.97.72-1.1 1.13-1.1.45 0 1.25.07 1.19 1.87z"/></symbol>
<!-- simple-icons -->
<!-- https://github.com/simple-icons/simple-icons/blob/develop/LICENSE.md -->
<symbol id="tailwindcss" role="img" viewBox="0 0 24 24"><title>Tailwind CSS</title><path d="M12.001,4.8c-3.2,0-5.2,1.6-6,4.8c1.2-1.6,2.6-2.2,4.2-1.8c0.913,0.228,1.565,0.89,2.288,1.624 C13.666,10.618,15.027,12,18.001,12c3.2,0,5.2-1.6,6-4.8c-1.2,1.6-2.6,2.2-4.2,1.8c-0.913-0.228-1.565-0.89-2.288-1.624 C16.337,6.182,14.976,4.8,12.001,4.8z M6.001,12c-3.2,0-5.2,1.6-6,4.8c1.2-1.6,2.6-2.2,4.2-1.8c0.913,0.228,1.565,0.89,2.288,1.624 c1.177,1.194,2.538,2.576,5.512,2.576c3.2,0,5.2-1.6,6-4.8c-1.2,1.6-2.6,2.2-4.2,1.8c-0.913-0.228-1.565-0.89-2.288-1.624 C10.337,13.382,8.976,12,6.001,12z"/></symbol>
<!-- simple-icons -->
<!-- https://github.com/simple-icons/simple-icons/blob/develop/LICENSE.md -->
<symbol id="testinglibrary" role="img" viewBox="0 0 24 24"><title>Testing Library</title><path d="M23.447 9.756c.028.05.053.113.078.186-.028-.06-.047-.129-.078-.186.592 2.304-1.95 5.003-5.13 4.239h.001c4.596-3.01 2.332-6.772.19-8.58-1.762-1.49-.721-1.95.021-1.95.237 0 .443.046.519.121l-.005-.004.006.004c-.018-1.433-5.066-1.11-.65 3.494 2.268 2.365-.408 7.596-3.596 3.618a.974.974 0 0 1-.071-.113c.515-.214.937-.795.937-1.753a2.383 2.383 0 0 0-.197-.986c.368-.75.707-1.647.707-2.77 0-2.684-1.742-5.076-4.18-5.076s-4.18 2.392-4.18 5.076c0 1.123.339 2.02.707 2.771a2.374 2.374 0 0 0-.197.988c0 .958.421 1.54.937 1.753a.985.985 0 0 1-.072.113C6.006 14.679 3.33 9.447 5.598 7.083c4.417-4.604-.633-4.926-.651-3.494l.008-.004c.078-.074.28-.12.515-.12.742 0 1.783.46.021 1.95-2.133 1.8-4.383 5.538.139 8.542.018.013.03.027.049.04-3.176.764-5.714-1.928-5.131-4.232l.004-.01c-.001.002-.002.005-.004.006l.001-.003-.003.007c-1.174 1.61-.606 5.779 3.778 6.168.019.003.035.009.054.012-4.36 1-3.048 7.02.021 6.056L4.388 22l.016-.003C2.27 21.652 2.11 19 3.176 18.087c1.172-1.006 2.519-.137 5.302-.932l.03-.004c-.03 2.446 2.352 3.76 1.103 5.16-1.316 1.473-3.112-.1-2.858-1.55l.006-.029-.004.008v-.004l-.004.012C5.65 22.598 7.044 24 8.61 24c.899 0 1.855-.462 2.429-1.567 1.214-2.337-2.385-6.432.96-6.432 3.344 0-.255 4.095.959 6.432.574 1.105 1.53 1.567 2.43 1.567 1.571 0 2.97-1.411 1.85-3.268l.005.021-.006-.017c.276 1.457-1.533 3.057-2.855 1.575-1.244-1.404 1.131-2.718 1.106-5.163 2.806.812 4.157-.072 5.334.94 1.066.911.906 3.564-1.228 3.91h.007c3.07.958 4.377-5.054.018-6.057l.005-.001c4.44-.362 5.009-4.573 3.822-6.184zm-20.238.39C3.072 7.9 5.019 6.073 5.62 5.565c.838-.707 1.165-1.272.998-1.727a.809.809 0 0 0-.656-.512 1.411 1.411 0 0 0-.573.03c.169-.082.365-.13.574-.13.475 0 .866.223.995.569.117.313.12 1.007-1.174 2.133-2.047 1.783-2.213 3.922-1.685 5.33.458 1.223 1.47 2.014 2.58 2.014.177 0 .355-.02.533-.057-.54.46-1.16.61-1.412.656-1.494-1.045-2.512-2.419-2.591-3.727zm5.208 6.873c-1.135.302-2.295.319-3.038.323-.924.006-1.655.01-2.333.593-.617.528-.873 1.594-.609 2.536.091.325.19.656.426.857.178.153.482.37.787.522l-.016-.004c.019.01.033.023.052.033-.993-.212-1.572-1.18-1.642-2.134-.088-1.205.602-2.728 2.832-3.055.354-.052.728-.083 1.101-.114.91-.076 1.85-.155 2.497-.54-.024.38-.046.788-.057.983zm.25-2.684c-.65.998-1.936 1.153-3.07 1.29-.32.038-.613.083-.883.138l-.356-.024c-1.801-.156-3.141-1.006-3.775-2.396a4.068 4.068 0 0 1-.353-2.055s.038-.376.108-.77c-.087 1.095.207 2.138.88 2.997a4.649 4.649 0 0 0 3.636 1.762c1.33 0 2.588-.59 3.545-1.663.33-.37.478-.398.516-.398.128.186.019.708-.247 1.119zm6.372-5.503c0 1.347-1.527 1.347-1.527 0s1.527-1.347 1.527 0zM13.234 3.34c0 .741-1.235.741-1.235 0 0-.74 1.235-.74 1.235 0zm-.258 8.156c0 .749-.06 1.356-.133 1.356s-.126-.605-.125-1.355c0-.75.062-1.356.133-1.356.07 0 .128.606.125 1.355zm-.952-1.614c.056 0 .1.73.1 1.631s-.044 1.631-.1 1.631-.1-.73-.1-1.63c0-.902.045-1.632.1-1.632zm-.193-8.21c0 .511-.849.511-.849 0s.85-.506.85 0zm-.587 4.22c0-.354.587-.351.587 0 0 .354-.587.354-.587 0zm.046 5.622c0 .768-.064 1.39-.137 1.39-.073 0-.132-.622-.131-1.389s.064-1.389.138-1.389c.074 0 .132.62.13 1.388zm0-7.495c0 .51-.849.51-.849 0s.849-.51.849 0zm-1.147-1.234c0 .353-.587.353-.587 0s.587-.353.587 0zm-.08 2.508c0 .255-.425.255-.425 0 0-.256.424-.256.424 0zm-1.1 3.54c0-1.347 1.528-1.347 1.528 0s-1.528 1.347-1.528 0zm5.327 9.088c-.078.74-.273 1.38-.446 1.946-.347 1.138-.622 2.036.242 3.002.363.407.829.622 1.346.622.64 0 1.278-.34 1.664-.889a1.97 1.97 0 0 0 .325-.844c.017.16.026.31.015.417a1.623 1.623 0 0 1-.197.646c-.336.595-1.063.98-1.85.98-.95 0-1.77-.532-2.253-1.459-.481-.927-.132-2.214.177-3.35.302-1.115.564-2.077.104-2.678-.263-.345-.727-.512-1.417-.512-.691 0-1.155.167-1.418.512-.46.6-.198 1.563.104 2.678.309 1.136.658 2.423.177 3.35-.482.927-1.303 1.459-2.252 1.459-.788 0-1.515-.385-1.851-.98a1.623 1.623 0 0 1-.182-1.058c.048.296.142.582.323.84.387.547 1.025.888 1.665.888.518 0 .984-.215 1.348-.622.862-.966.588-1.862.24-2.998-.173-.567-.369-1.21-.445-1.95-.1-.966.119-1.827.6-2.36.399-.441.967-.666 1.69-.666s1.293.224 1.69.665c.48.533.7 1.393.6 2.36zm3.029-4.647c1.11 0 2.122-.79 2.579-2.014.526-1.408.36-3.547-1.69-5.33-1.295-1.127-1.292-1.82-1.175-2.134.13-.345.52-.569.994-.569.193 0 .372.045.532.115l.011.004a1.466 1.466 0 0 0-.533-.018.809.809 0 0 0-.656.512c-.166.455.16 1.02.998 1.728.6.507 2.548 2.334 2.411 4.578-.08 1.308-1.097 2.682-2.591 3.727a3.072 3.072 0 0 1-1.412-.656c.177.038.356.057.532.057zm4.635 6.469c-.07.956-.65 1.922-1.645 2.134.015-.008.028-.018.042-.027.305-.153.608-.368.785-.52.235-.202.335-.533.426-.858.264-.942.008-2.008-.609-2.536-.678-.582-1.409-.587-2.333-.593-.743-.004-1.903-.021-3.04-.323-.01-.196-.03-.602-.054-.983.647.386 1.589.465 2.5.542.373.031.744.062 1.097.113 2.23.327 2.919 1.848 2.83 3.05zm-2.666-3.979c-.271-.056-.565-.1-.886-.14-1.135-.136-2.421-.291-3.07-1.29-.268-.41-.38-.93-.292-1.09a.145.145 0 0 1 .048-.009c.09 0 .238.073.511.379.957 1.073 2.217 1.663 3.546 1.663 1.414 0 2.774-.66 3.637-1.763.672-.858.965-1.9.88-2.994.07.393.107.77.107.77a4.068 4.068 0 0 1-.353 2.054c-.634 1.39-1.974 2.24-3.775 2.396l-.353.024zm-9.69-7.495a.236.236 0 0 1 .11.221.236.236 0 1 1-.47 0 .235.235 0 0 1 .36-.221zm4.295.443a.235.235 0 0 1-.11-.222.235.235 0 1 1 .469 0 .236.236 0 0 1-.359.222z"/></symbol>
<!-- simple-icons -->
<!-- https://github.com/simple-icons/simple-icons/blob/develop/LICENSE.md -->
<symbol id="typescript" role="img" viewBox="0 0 24 24"><title>TypeScript</title><path d="M1.125 0C.502 0 0 .502 0 1.125v21.75C0 23.498.502 24 1.125 24h21.75c.623 0 1.125-.502 1.125-1.125V1.125C24 .502 23.498 0 22.875 0zm17.363 9.75c.612 0 1.154.037 1.627.111a6.38 6.38 0 0 1 1.306.34v2.458a3.95 3.95 0 0 0-.643-.361 5.093 5.093 0 0 0-.717-.26 5.453 5.453 0 0 0-1.426-.2c-.3 0-.573.028-.819.086a2.1 2.1 0 0 0-.623.242c-.17.104-.3.229-.393.374a.888.888 0 0 0-.14.49c0 .196.053.373.156.529.104.156.252.304.443.444s.423.276.696.41c.273.135.582.274.926.416.47.197.892.407 1.266.628.374.222.695.473.963.753.268.279.472.598.614.957.142.359.214.776.214 1.253 0 .657-.125 1.21-.373 1.656a3.033 3.033 0 0 1-1.012 1.085 4.38 4.38 0 0 1-1.487.596c-.566.12-1.163.18-1.79.18a9.916 9.916 0 0 1-1.84-.164 5.544 5.544 0 0 1-1.512-.493v-2.63a5.033 5.033 0 0 0 3.237 1.2c.333 0 .624-.03.872-.09.249-.06.456-.144.623-.25.166-.108.29-.234.373-.38a1.023 1.023 0 0 0-.074-1.089 2.12 2.12 0 0 0-.537-.5 5.597 5.597 0 0 0-.807-.444 27.72 27.72 0 0 0-1.007-.436c-.918-.383-1.602-.852-2.053-1.405-.45-.553-.676-1.222-.676-2.005 0-.614.123-1.141.369-1.582.246-.441.58-.804 1.004-1.089a4.494 4.494 0 0 1 1.47-.629 7.536 7.536 0 0 1 1.77-.201zm-15.113.188h9.563v2.166H9.506v9.646H6.789v-9.646H3.375z"/></symbol>
<!-- tabler-icons -->
<!-- https://github.com/tabler/tabler-icons/blob/master/LICENSE -->
<symbol id="x" class="icon icon-tabler icon-tabler-x" viewBox="0 0 24 24" stroke-width="2" stroke="currentColor" fill="none" stroke-linecap="round" stroke-linejoin="round">
  <path stroke="none" d="M0 0h24v24H0z" fill="none"/>
  <path d="M18 6l-12 12" />
  <path d="M6 6l12 12" />
</symbol>



</svg>
