<?xml version="1.0" encoding="UTF-8"?>
<svg xmlns="http://www.w3.org/2000/svg" xmlns:xlink="http://www.w3.org/1999/xlink" width="0" height="0">
<symbol id="bars-3" fill="none" stroke="currentColor" stroke-width="1.5" class="w-6 h-6" data-slot="icon" viewBox="0 0 24 24"><path stroke-linecap="round" stroke-linejoin="round" d="M3.75 6.75h16.5M3.75 12h16.5m-16.5 5.25h16.5"/></symbol>
<symbol id="css" viewBox="0 0 452 520"><path fill="currentColor" d="M41 460 0 0h451l-41 460-185 52"/><path fill="currentColor" d="m226 472 149-41 35-394H226"/><path fill="currentColor" d="M226 208H94l5 57h127zm0-114H84l5 56h137zm0 261-124-33 7 60 117 32z"/><path fill="currentColor" d="M226 265h69l-7 73-62 17v59l115-32 26-288H226v56h80l-6 58h-74z"/></symbol>
<symbol id="gatsby" viewBox="0 0 128 128"><path fill="currentColor" d="M64 0C28.7 0 0 28.7 0 64s28.7 64 64 64 64-28.7 64-64S99.3 0 64 0zM13.2 64 64 114.8c-28.1 0-50.8-22.7-50.8-50.8zm62.2 49.5-60.9-61C19.7 30 39.9 13.2 64 13.2c16.6 0 31.3 7.9 40.5 20.2L97 40.6c-7.3-10.4-19.3-17.1-33-17.1-17.6 0-32.5 11.2-38.1 26.8C33.1 57 75.4 98.8 78.1 102c12.7-4.7 22.3-15.5 25.4-28.9H81.9v-9.4l33 .2c-.1 24.3-16.9 44.5-39.5 49.6z"/></symbol>
<symbol id="git" preserveAspectRatio="xMidYMid" viewBox="0 0 256 256"><path fill="currentColor" d="M251.17 116.6 139.4 4.82a16.49 16.49 0 0 0-23.31 0l-23.21 23.2 29.44 29.45a19.57 19.57 0 0 1 24.8 24.96l28.37 28.38a19.61 19.61 0 1 1-11.75 11.06L137.28 95.4v69.64a19.62 19.62 0 1 1-16.13-.57V94.2a19.61 19.61 0 0 1-10.65-25.73L81.46 39.44 4.83 116.08a16.49 16.49 0 0 0 0 23.32L116.6 251.17a16.49 16.49 0 0 0 23.32 0l111.25-111.25a16.5 16.5 0 0 0 0-23.33"/></symbol>
<symbol id="graphql" fill="currentColor" viewBox="0 0 100 100"><path fill-rule="evenodd" d="m50 6.903 37.323 21.549v43.096L50 93.097 12.677 71.548V28.451L50 6.903ZM16.865 30.87v31.656L44.28 15.041 16.864 30.87ZM50 13.51 18.398 68.246h63.205L50 13.509Zm27.415 58.924h-54.83L50 88.261l27.415-15.828Zm5.72-9.908L55.72 15.041 83.136 30.87v31.656Z" clip-rule="evenodd"/><circle cx="50" cy="9.321" r="8.82"/><circle cx="85.229" cy="29.66" r="8.82"/><circle cx="85.229" cy="70.34" r="8.82"/><circle cx="50" cy="90.679" r="8.82"/><circle cx="14.766" cy="70.34" r="8.82"/><circle cx="14.766" cy="29.66" r="8.82"/></symbol>
<symbol id="html5" viewBox="0 0 452 520"><path fill="currentColor" d="M41 460 0 0h451l-41 460-185 52"/><path fill="currentColor" d="m226 472 149-41 35-394H226"/><path fill="currentColor" d="M226 208h-75l-5-58h80V94H84l15 171h127zm0 147-64-17-4-45h-56l7 89 117 32z"/><path fill="currentColor" d="M226 265h69l-7 73-62 17v59l115-32 16-174H226zm0-171v56h136l5-56z"/></symbol>
<symbol id="javascript" viewBox="0 0 1052 1052"><path fill="currentColor" d="M0 0h1052v1052H0z"/><path fill="currentColor" d="M965.9 801.1c-7.7-48-39-88.3-131.7-125.9-32.2-14.8-68.1-25.399-78.8-49.8-3.8-14.2-4.3-22.2-1.9-30.8 6.9-27.9 40.2-36.6 66.6-28.6 17 5.7 33.1 18.801 42.8 39.7 45.4-29.399 45.3-29.2 77-49.399-11.6-18-17.8-26.301-25.4-34-27.3-30.5-64.5-46.2-124-45-10.3 1.3-20.699 2.699-31 4-29.699 7.5-58 23.1-74.6 44-49.8 56.5-35.6 155.399 25 196.1 59.7 44.8 147.4 55 158.6 96.9 10.9 51.3-37.699 67.899-86 62-35.6-7.4-55.399-25.5-76.8-58.4-39.399 22.8-39.399 22.8-79.899 46.1 9.6 21 19.699 30.5 35.8 48.7 76.2 77.3 266.899 73.5 301.1-43.5 1.399-4.001 10.6-30.801 3.199-72.101zm-394-317.6h-98.4c0 85-.399 169.4-.399 254.4 0 54.1 2.8 103.7-6 118.9-14.4 29.899-51.7 26.2-68.7 20.399-17.3-8.5-26.1-20.6-36.3-37.699-2.8-4.9-4.9-8.7-5.601-9-26.699 16.3-53.3 32.699-80 49 13.301 27.3 32.9 51 58 66.399 37.5 22.5 87.9 29.4 140.601 17.3 34.3-10 63.899-30.699 79.399-62.199 22.4-41.3 17.6-91.3 17.4-146.6.5-90.2 0-180.4 0-270.9z"/></symbol>
<symbol id="jest" preserveAspectRatio="xMidYMid" viewBox="0 0 256 283"><path fill="currentColor" d="M240 139a26 26 0 0 0-29-26L247 6H93l36 107a26 26 0 0 0-28 26c0 12 8 22 19 25a115 115 0 0 1-58 49c-16-8-23-27-17-43l3-5a26 26 0 1 0-21-4c-7 14-16 30-19 48-4 21 0 44 18 57 44 30 91-18 140-31 18-4 38-3 54-13 12-6 20-18 22-31 2-12-1-25-9-35 4-5 7-11 7-17"/><path fill="currentColor" d="M236 190c-2 11-9 21-19 27-10 5-21 7-33 9l-19 3c-17 4-34 12-50 20-32 16-59 30-85 12-19-13-18-38-16-51 2-12 8-24 13-35l3-5 8 2c-5 18 3 37 21 47l3 1 2-1c15-5 28-13 39-24 8-7 14-15 20-24a33 33 0 0 0 37-28h21a33 33 0 0 0 51 23c4 7 5 16 4 24ZM42 119a20 20 0 1 1 0 40 20 20 0 0 1 0-40Zm66 20a20 20 0 1 1 40 0 20 20 0 0 1-40 0Zm83-24c-5 4-8 10-9 15h-23c-1-6-5-11-10-15l21-42 21 42ZM102 13h136l-32 94-4 1-32-64-32 64-4-1-32-94Zm131 126a20 20 0 0 1-20 20 20 20 0 1 1 20-20Zm13 0c0-16-12-29-27-32L256 0H84l37 107a33 33 0 0 0-11 60 110 110 0 0 1-47 39c-12-8-17-21-12-33l1-1 1-2a33 33 0 1 0-34-8l-4 8c-5 11-11 24-14 38-4 28 3 51 22 63 11 8 22 11 34 11 21 0 43-11 64-21 15-8 31-16 47-19l18-4c13-1 26-3 37-10a51 51 0 0 0 18-72c3-5 5-11 5-17Z"/></symbol>
<symbol id="mysql" preserveAspectRatio="xMidYMid" viewBox="0 0 256 252"><path fill="currentColor" d="M236 194c-14 0-25 1-34 5-3 1-7 1-7 4l3 6c2 3 5 8 9 11l11 8 21 10 11 9 6 4-3-6-5-5c-5-7-11-13-18-18-6-3-18-9-20-15h-1l12-3 18-3 8-2v-2l-9-10c-8-8-18-15-28-22l-18-8c-2-1-6-2-7-4l-7-13-15-30-8-20c-18-30-38-48-68-65-6-4-14-5-22-7l-13-1-8-6C34 5 8-9 1 9c-5 11 7 22 11 28l9 13 3 9c3 8 5 17 9 24l6 10c2 2 4 3 5 6-3 4-3 9-4 13-7 20-4 44 5 59 2 4 9 14 18 10 8-3 6-13 8-22l1-4 8 14c5 9 14 18 22 24 4 3 8 8 13 10l-4-4-9-10c-8-10-14-21-20-32l-7-17-3-6c-3 4-7 7-9 12-3 7-3 17-4 26h-1c-6-1-8-7-10-12-5-12-6-32-1-46 1-4 6-15 4-19-1-3-4-5-6-7l-7-12-10-30-9-13c-3-5-7-8-10-14-1-2-2-5 0-7l2-2c2-2 9 0 11 1 6 3 12 5 17 9l8 6h4c6 1 12 0 17 2 9 3 18 7 25 12 23 14 42 35 54 59 3 4 3 8 5 12l12 26c4 8 7 16 12 23 3 4 14 6 18 8l12 4 18 12c2 2 11 7 12 10Z"/><path fill="currentColor" d="m58 43-7 1 6 7 4 9v-1c3-1 4-4 4-8l-2-4-5-4Z"/></symbol>
<symbol id="nextjs" fill="none" viewBox="0 0 180 180"><mask x="0" y="0" maskUnits="userSpaceOnUse" style="mask-type:alpha"><circle cx="90" cy="90" r="90" fill="currentColor"/></mask><g mask="url(#a)"><circle cx="90" cy="90" r="90" fill="currentColor"/><path fill="currentColor" d="M149.508 157.52 69.142 54H54v71.97h12.114V69.384l73.885 95.461a90.304 90.304 0 0 0 9.509-7.325Z"/><path fill="currentColor" d="M115 54h12v72h-12z"/></g><defs><linearGradient id="b" x1="109" x2="144.5" y1="116.5" y2="160.5" gradientUnits="userSpaceOnUse"><stop stop-color="#fff"/><stop offset="1" stop-color="#fff" stop-opacity="0"/></linearGradient><linearGradient id="c" x1="121" x2="120.799" y1="54" y2="106.875" gradientUnits="userSpaceOnUse"><stop stop-color="#fff"/><stop offset="1" stop-color="#fff" stop-opacity="0"/></linearGradient></defs></symbol>
<symbol id="nodejs" preserveAspectRatio="xMidYMid" viewBox="0 0 256 289"><path fill="currentColor" d="M128 288.464c-3.975 0-7.685-1.06-11.13-2.915l-35.247-20.936c-5.3-2.915-2.65-3.975-1.06-4.505 7.155-2.385 8.48-2.915 15.9-7.156.796-.53 1.856-.265 2.65.265l27.032 16.166c1.06.53 2.385.53 3.18 0l105.74-61.217c1.06-.53 1.59-1.59 1.59-2.915V83.08c0-1.325-.53-2.385-1.59-2.915l-105.74-60.953c-1.06-.53-2.385-.53-3.18 0L20.405 80.166c-1.06.53-1.59 1.855-1.59 2.915v122.17c0 1.06.53 2.385 1.59 2.915l28.887 16.695c15.636 7.95 25.44-1.325 25.44-10.6V93.68c0-1.59 1.326-3.18 3.181-3.18h13.516c1.59 0 3.18 1.325 3.18 3.18v120.58c0 20.936-11.396 33.126-31.272 33.126-6.095 0-10.865 0-24.38-6.625l-27.827-15.9C4.24 220.885 0 213.465 0 205.515V83.346C0 75.396 4.24 67.976 11.13 64L116.87 2.783c6.625-3.71 15.635-3.71 22.26 0L244.87 64C251.76 67.975 256 75.395 256 83.346v122.17c0 7.95-4.24 15.37-11.13 19.345L139.13 286.08c-3.445 1.59-7.42 2.385-11.13 2.385Zm32.596-84.009c-46.377 0-55.917-21.2-55.917-39.221 0-1.59 1.325-3.18 3.18-3.18h13.78c1.59 0 2.916 1.06 2.916 2.65 2.12 14.045 8.215 20.936 36.306 20.936 22.261 0 31.802-5.035 31.802-16.96 0-6.891-2.65-11.926-37.367-15.372-28.886-2.915-46.907-9.275-46.907-32.33 0-21.467 18.02-34.187 48.232-34.187 33.921 0 50.617 11.66 52.737 37.101 0 .795-.265 1.59-.795 2.385-.53.53-1.325 1.06-2.12 1.06h-13.78c-1.326 0-2.65-1.06-2.916-2.385-3.18-14.575-11.395-19.345-33.126-19.345-24.38 0-27.296 8.48-27.296 14.84 0 7.686 3.445 10.07 36.306 14.31 32.597 4.24 47.967 10.336 47.967 33.127-.265 23.321-19.345 36.571-53.002 36.571Z"/></symbol>
<symbol id="postgresql" preserveAspectRatio="xMidYMid" viewBox="0 0 256 264"><path d="M255 158c-2-5-6-8-11-9l-8 1-14 2c12-20 22-43 27-65 9-34 5-50-1-57a77 77 0 0 0-62-30c-14 0-27 3-33 5l-19-2c-12 0-24 3-33 8L78 5c-23-3-42 0-55 9C7 26-1 46 0 74a342 342 0 0 0 28 97c7 14 14 22 23 24 5 2 13 3 22-4l5 4 9 3c11 3 22 2 31-1a643 643 0 0 1 0 10 109 109 0 0 0 5 33c1 4 4 11 9 16 6 6 13 8 20 8l9-1c10-2 21-6 29-17s11-27 12-53v-2l1-2 1 1h1c10 0 22-2 30-6 5-2 24-12 20-26"/><path fill="currentColor" d="M238 161c-30 6-32-4-32-4 32-47 45-106 33-120-31-40-84-21-85-21l-20-2c-14 0-24 4-32 10 0 0-95-40-91 49 1 19 28 143 59 106l22-26c6 4 12 6 19 5h1v5c-8 9-6 10-22 14-16 3-7 9 0 11s25 4 36-12v2c3 2 5 16 5 29-1 12-1 21 2 27 2 7 5 22 26 18 17-4 27-14 28-30 1-12 3-10 3-20l1-5c2-16 1-21 12-19l2 1c8 0 19-2 25-5 13-6 21-16 8-13"/><path fill="currentColor" d="M108 82h-6l-1 2 1 3c1 2 3 3 5 3h1c3 0 6-2 6-4 1-2-3-4-6-4m89 0c0-2-4-3-7-2-3 0-6 1-6 3 1 2 3 4 6 4h1l4-2 2-3"/><path fill="currentColor" d="M248 160c-1-3-5-5-11-3-18 3-24 1-27-1 14-21 26-47 32-71 3-11 5-22 5-30 0-10-2-17-5-21a70 70 0 0 0-57-27c-16 0-30 4-33 6-5-2-12-3-18-3-13 0-23 3-32 9-4-2-14-5-26-7-21-3-37-1-49 8C13 30 6 48 8 73c0 8 5 35 13 60 10 33 21 51 32 55l5 1c4 0 9-2 14-9l21-22c4 2 9 3 14 3v1l-2 3c-4 5-5 5-16 8-3 0-12 2-12 8 0 7 10 10 11 10l12 1c9 0 17-3 24-8-1 23 0 46 3 53 3 6 8 20 26 20l9-1c18-4 26-12 29-30l6-45 11 1c8 0 17-2 23-5 7-3 19-10 17-17Zm-44-83-1 10-2 12 1 14c1 9 3 19-2 28l-2-4-3-6c-7-12-22-39-14-50 2-3 8-6 23-4Zm-18-62c21 0 38 8 50 23 9 12-1 65-30 111l-1-1c7-13 6-25 5-36l-1-13 1-11a72 72 0 0 0 1-16c0-5-6-20-18-34-6-7-16-16-28-21l21-2ZM67 176c-6 7-10 6-12 5-8-3-19-21-27-51-8-25-13-50-13-57-1-23 4-39 16-47 20-14 52-6 64-2v1C74 46 74 82 74 85v3c1 7 2 18 0 31a38 38 0 0 0 12 34l-19 23Zm22-30c-6-7-9-16-8-26 2-14 1-26 1-32v-2c3-3 17-11 27-8 5 1 8 4 9 9 6 28 1 40-4 50l-2 5-1 2-3 10c-7 0-14-3-19-8Zm1 38-5-2 6-2c13-3 15-5 19-10l4-5c3-3 4-2 6-1 1 0 3 2 4 5l-1 4c-9 13-23 13-33 11Zm70 65c-16 3-22-5-26-15a293 293 0 0 1-3-67c-2-5-5-9-8-10-2-1-5-2-8-1l3-10 1-1 2-5c5-10 11-24 4-54-2-12-11-17-23-16a54 54 0 0 0-20 7c1-12 5-33 18-47 9-8 20-13 34-12 27 0 44 14 54 26 8 10 13 20 15 25-14-1-23 1-28 8-10 15 6 44 13 57l3 6 8 13 2 2c-4 2-11 4-11 18l-6 51c-3 16-8 21-24 25Zm68-78c-4 2-11 3-18 3-8 1-11 0-12-1-1-9 3-10 6-11h2l1 1c6 4 16 4 31 1h1l-11 7Z"/></symbol>
<symbol id="prisma_dark" preserveAspectRatio="xMidYMid" viewBox="0 0 256 310"><path fill="currentColor" d="M254.313 235.519 148 9.749A17.063 17.063 0 0 0 133.473.037a16.87 16.87 0 0 0-15.533 8.052L2.633 194.848a17.465 17.465 0 0 0 .193 18.747L59.2 300.896a18.13 18.13 0 0 0 20.363 7.489l163.599-48.392a17.929 17.929 0 0 0 11.26-9.722 17.542 17.542 0 0 0-.101-14.76l-.008.008zm-23.802 9.683-138.823 41.05c-4.235 1.26-8.3-2.411-7.419-6.685l49.598-237.484c.927-4.443 7.063-5.147 9.003-1.035l91.814 194.973a6.63 6.63 0 0 1-4.18 9.18h.007z"/></symbol>
<symbol id="react" preserveAspectRatio="xMidYMid" viewBox="0 0 256 228"><path fill="currentColor" d="M210.483 73.824a171.49 171.49 0 0 0-8.24-2.597c.465-1.9.893-3.777 1.273-5.621 6.238-30.281 2.16-54.676-11.769-62.708-13.355-7.7-35.196.329-57.254 19.526a171.23 171.23 0 0 0-6.375 5.848 155.866 155.866 0 0 0-4.241-3.917C100.759 3.829 77.587-4.822 63.673 3.233 50.33 10.957 46.379 33.89 51.995 62.588a170.974 170.974 0 0 0 1.892 8.48c-3.28.932-6.445 1.924-9.474 2.98C17.309 83.498 0 98.307 0 113.668c0 15.865 18.582 31.778 46.812 41.427a145.52 145.52 0 0 0 6.921 2.165 167.467 167.467 0 0 0-2.01 9.138c-5.354 28.2-1.173 50.591 12.134 58.266 13.744 7.926 36.812-.22 59.273-19.855a145.567 145.567 0 0 0 5.342-4.923 168.064 168.064 0 0 0 6.92 6.314c21.758 18.722 43.246 26.282 56.54 18.586 13.731-7.949 18.194-32.003 12.4-61.268a145.016 145.016 0 0 0-1.535-6.842c1.62-.48 3.21-.974 4.76-1.488 29.348-9.723 48.443-25.443 48.443-41.52 0-15.417-17.868-30.326-45.517-39.844Zm-6.365 70.984c-1.4.463-2.836.91-4.3 1.345-3.24-10.257-7.612-21.163-12.963-32.432 5.106-11 9.31-21.767 12.459-31.957 2.619.758 5.16 1.557 7.61 2.4 23.69 8.156 38.14 20.213 38.14 29.504 0 9.896-15.606 22.743-40.946 31.14Zm-10.514 20.834c2.562 12.94 2.927 24.64 1.23 33.787-1.524 8.219-4.59 13.698-8.382 15.893-8.067 4.67-25.32-1.4-43.927-17.412a156.726 156.726 0 0 1-6.437-5.87c7.214-7.889 14.423-17.06 21.459-27.246 12.376-1.098 24.068-2.894 34.671-5.345a134.17 134.17 0 0 1 1.386 6.193ZM87.276 214.515c-7.882 2.783-14.16 2.863-17.955.675-8.075-4.657-11.432-22.636-6.853-46.752a156.923 156.923 0 0 1 1.869-8.499c10.486 2.32 22.093 3.988 34.498 4.994 7.084 9.967 14.501 19.128 21.976 27.15a134.668 134.668 0 0 1-4.877 4.492c-9.933 8.682-19.886 14.842-28.658 17.94ZM50.35 144.747c-12.483-4.267-22.792-9.812-29.858-15.863-6.35-5.437-9.555-10.836-9.555-15.216 0-9.322 13.897-21.212 37.076-29.293 2.813-.98 5.757-1.905 8.812-2.773 3.204 10.42 7.406 21.315 12.477 32.332-5.137 11.18-9.399 22.249-12.634 32.792a134.718 134.718 0 0 1-6.318-1.979Zm12.378-84.26c-4.811-24.587-1.616-43.134 6.425-47.789 8.564-4.958 27.502 2.111 47.463 19.835a144.318 144.318 0 0 1 3.841 3.545c-7.438 7.987-14.787 17.08-21.808 26.988-12.04 1.116-23.565 2.908-34.161 5.309a160.342 160.342 0 0 1-1.76-7.887Zm110.427 27.268a347.8 347.8 0 0 0-7.785-12.803c8.168 1.033 15.994 2.404 23.343 4.08-2.206 7.072-4.956 14.465-8.193 22.045a381.151 381.151 0 0 0-7.365-13.322Zm-45.032-43.861c5.044 5.465 10.096 11.566 15.065 18.186a322.04 322.04 0 0 0-30.257-.006c4.974-6.559 10.069-12.652 15.192-18.18ZM82.802 87.83a323.167 323.167 0 0 0-7.227 13.238c-3.184-7.553-5.909-14.98-8.134-22.152 7.304-1.634 15.093-2.97 23.209-3.984a321.524 321.524 0 0 0-7.848 12.897Zm8.081 65.352c-8.385-.936-16.291-2.203-23.593-3.793 2.26-7.3 5.045-14.885 8.298-22.6a321.187 321.187 0 0 0 7.257 13.246c2.594 4.48 5.28 8.868 8.038 13.147Zm37.542 31.03c-5.184-5.592-10.354-11.779-15.403-18.433 4.902.192 9.899.29 14.978.29 5.218 0 10.376-.117 15.453-.343-4.985 6.774-10.018 12.97-15.028 18.486Zm52.198-57.817c3.422 7.8 6.306 15.345 8.596 22.52-7.422 1.694-15.436 3.058-23.88 4.071a382.417 382.417 0 0 0 7.859-13.026 347.403 347.403 0 0 0 7.425-13.565Zm-16.898 8.101a358.557 358.557 0 0 1-12.281 19.815 329.4 329.4 0 0 1-23.444.823c-7.967 0-15.716-.248-23.178-.732a310.202 310.202 0 0 1-12.513-19.846h.001a307.41 307.41 0 0 1-10.923-20.627 310.278 310.278 0 0 1 10.89-20.637l-.001.001a307.318 307.318 0 0 1 12.413-19.761c7.613-.576 15.42-.876 23.31-.876H128c7.926 0 15.743.303 23.354.883a329.357 329.357 0 0 1 12.335 19.695 358.489 358.489 0 0 1 11.036 20.54 329.472 329.472 0 0 1-11 20.722Zm22.56-122.124c8.572 4.944 11.906 24.881 6.52 51.026-.344 1.668-.73 3.367-1.15 5.09-10.622-2.452-22.155-4.275-34.23-5.408-7.034-10.017-14.323-19.124-21.64-27.008a160.789 160.789 0 0 1 5.888-5.4c18.9-16.447 36.564-22.941 44.612-18.3ZM128 90.808c12.625 0 22.86 10.235 22.86 22.86s-10.235 22.86-22.86 22.86-22.86-10.235-22.86-22.86 10.235-22.86 22.86-22.86Z"/></symbol>
<symbol id="redux" preserveAspectRatio="xMidYMid" viewBox="0 -6 256 256"><path fill="currentColor" d="M177.381 169.733c9.447-.978 16.614-9.122 16.288-18.896-.325-9.773-8.47-17.592-18.243-17.592h-.651c-10.1.326-17.918 8.796-17.592 18.895.326 4.887 2.28 9.122 5.212 12.054-11.076 21.828-28.016 37.791-53.426 51.148-17.266 9.122-35.183 12.38-53.1 10.1-14.66-1.955-26.062-8.47-33.23-19.222-10.424-15.963-11.401-33.23-2.605-50.496 6.19-12.38 15.962-21.502 22.152-26.063-1.303-4.235-3.258-11.402-4.235-16.614-47.237 34.207-42.35 80.468-28.016 102.295 10.75 16.29 32.577 26.389 56.684 26.389 6.515 0 13.03-.652 19.546-2.28 41.699-8.145 73.299-32.905 91.216-69.718zm57.336-40.397c-24.759-28.995-61.245-44.958-102.944-44.958h-5.212c-2.932-5.864-9.122-9.774-15.963-9.774h-.652C99.848 74.93 92.03 83.4 92.355 93.5c.326 9.773 8.47 17.592 18.243 17.592h.651c7.167-.326 13.357-4.887 15.963-11.077h5.864c24.759 0 48.214 7.167 69.39 21.176 16.288 10.751 28.016 24.76 34.531 41.7 5.538 13.683 5.212 27.04-.652 38.443-9.121 17.266-24.432 26.714-44.63 26.714-13.031 0-25.41-3.91-31.926-6.842-3.583 3.258-10.099 8.47-14.66 11.729 14.009 6.515 28.343 10.099 42.025 10.099 31.274 0 54.404-17.267 63.2-34.533 9.447-18.896 8.795-51.474-15.637-79.165zM69.225 175.27c.326 9.774 8.47 17.592 18.243 17.592h.652c10.099-.325 17.917-8.796 17.591-18.895-.325-9.774-8.47-17.592-18.243-17.592h-.651c-.652 0-1.63 0-2.28.325-13.357-22.153-18.895-46.26-16.94-72.323 1.302-19.547 7.818-36.488 19.22-50.497 9.447-12.054 27.69-17.918 40.07-18.243 34.531-.652 49.19 42.351 50.168 59.618 4.235.977 11.402 3.258 16.289 4.887C189.434 27.366 156.857 0 125.584 0c-29.32 0-56.359 21.176-67.11 52.451-14.985 41.7-5.212 81.771 13.031 113.372-1.628 2.28-2.606 5.864-2.28 9.448z"/></symbol>
<symbol id="remix" viewBox="0 0 512 128"><path fill="currentColor" d="M404.472 38.335v89.493h-32.264V38.335zm41.606-.176 14.738 21.27 15.136-21.27h33.26l-32.264 42.54L512 127.653h-35.65l-17.724-24.28-17.726 24.28h-33.26l34.853-45.55L410.43 38.16zm-116.09-2.827c24.252 0 31.522 16.717 31.665 35.158l.002.56v56.184H329.39V79.313l-.006-.72-.01-.707-.018-.693-.023-.678a63.244 63.244 0 0 0-.014-.334l-.033-.657a53.255 53.255 0 0 0-.04-.643l-.046-.629a44.966 44.966 0 0 0-.026-.309l-.058-.608-.065-.593c-.915-7.718-3.901-11.725-11.61-11.725-9.142 0-13.103 6.379-14.086 16.549l-.064.724c-.12 1.46-.18 2.996-.189 4.598l-.001 44.346h-32.264V79.678l-.003-.727c0-.12-.002-.24-.003-.359l-.012-.706-.018-.693-.025-.678-.032-.664a54.24 54.24 0 0 0-.018-.327l-.043-.643-.05-.629-.057-.615c-.838-8.303-3.885-12.62-11.888-12.62-10.45 0-14.263 8.653-14.338 21.87l-.001 44.347h-32.264V37.74h32.264v13.444c4.78-9.832 14.34-15.852 27.683-15.852 15.734 0 23.899 7.224 27.684 17.658 4.78-10.033 15.335-17.658 30.271-17.658m-170.42-2.827c29.38 0 45.093 20.06 45.405 44.02l.004.728v9.029H142.64c.797 11.036 8.764 16.253 18.522 16.253 8.65 0 14.195-2.931 17.21-9.76l.117-.272 25.891 2.407c-4.58 20.468-20.912 31.905-44.413 31.905-28.48 0-48.794-17.257-48.794-45.75 0-28.293 20.713-48.56 48.396-48.56M60.366 0c32.541 0 48.712 15.488 48.712 40.228 0 18.505-11.38 30.573-26.752 32.585 12.977 2.615 20.563 10.057 21.96 24.74l.203 2.7.177 2.524.152 2.362.106 1.78.114 2.1.06 1.2.083 1.904.068 1.8.034 1.033.045 1.657.04 1.894.014.916.025 2.652.008 2.768.001 1.655H71.857c0-.698.006-1.37.014-2.03l.02-1.306.058-3.164.015-1.06.01-1.097.001-.566-.001-1.063-.01-1.115-.014-.876-.027-1.225-.04-1.3-.054-1.381-.068-1.472-.04-.772-.069-1.207-.079-1.268-.122-1.792-.106-1.424C70.417 88.912 65 85.186 55.093 84.73l-.646-.025-.658-.016a54.423 54.423 0 0 0-.67-.008L0 84.68V58.33h54.376c14.374 0 21.56-4.406 21.56-16.072 0-10.258-7.186-16.475-21.56-16.475H0V0zM35.483 106.855c4.402 0 6.245 2.445 6.9 4.785l.071.27.032.133.055.267.047.263.02.13.033.257.025.252.01.123.013.243.004.118.003.23v12.572H0v-19.643zM159.17 55.782c-8.078 0-12.642 3.906-14.826 9.625l-.164.443-.154.45c-.15.454-.285.918-.408 1.39l-.118.477c-.075.32-.145.642-.21.97l-.092.492a10.8 10.8 0 0 0-.043.249l-.08.5-.037.253h31.268c-.399-8.027-5.577-14.85-15.136-14.85m245.5-54.369v28.494h-32.66V1.413z"/></symbol>
<symbol id="sass" viewBox="0 0 512 384"><path fill="currentColor" d="M441 221c-18 0-34 4-47 10-5-9-9-17-10-24s-2-11-1-20 6-21 6-22c0 0-1-5-11-5-11 0-20 2-21 5l-4 15c-2 9-20 43-31 60-4-7-7-13-7-17-1-8-2-12-1-21s6-20 6-21-1-6-11-6c-11 0-20 2-21 5l-4 15-34 76-8 18c-2 4 0 0 0 1l-3 5-4 5s-1-7 1-16c3-19 12-49 12-51 0 0 2-5-6-8-7-3-9 2-10 2l-1 1s8-34-16-34c-14 0-35 17-45 31l-34 19-17 9-1-1c-29-31-82-52-79-93 0-15 6-54 101-102 79-39 141-28 152-4 16 34-33 97-115 106-31 3-47-9-51-13-4-5-5-5-7-4s-1 5 0 8c3 6 13 17 30 23 15 5 51 8 95-9 49-19 88-72 77-117-12-45-87-60-157-35-43 15-88 39-121 70-39 36-45 68-43 81 10 47 74 78 100 100l-3 2c-13 7-63 33-75 60-14 31 2 53 13 56 33 10 68-7 86-34 18-28 16-64 8-80l-1-1 11-6 18-10c-3 9-5 19-6 34-2 17 6 40 15 49 4 4 9 4 12 4 11 0 16-9 22-20l13-28s-8 41 13 41c7 0 15-9 18-14l1-1 1-2 20-37 25-57 5 20c2 8 7 16 10 24l-4 7-8 10c-10 12-23 26-24 30-2 5-2 8 2 11 3 2 8 2 13 2l18-4 17-9c10-7 16-18 15-32 0-7-3-15-6-22l3-4c16-23 28-49 28-49l5 21 9 20a89 89 0 0 0-27 36c-6 17-2 24 7 26 4 1 10-1 14-3 5-1 11-4 17-8 10-8 20-18 19-32 0-6-2-13-4-19 12-5 29-8 49-5 45 5 54 33 52 44-2 12-11 18-14 20l-4 4c1 2 2 2 5 2 3-1 23-10 24-31 1-28-25-58-71-57zM97 336c-14 16-35 23-44 17-9-5-6-29 13-46 11-10 25-20 34-26l9-5 1-1 3-1c6 24 0 45-16 62zm108-73c-5 13-16 45-22 43-6-1-9-26-2-50 4-12 13-26 18-32 8-9 17-12 19-8 3 5-10 39-13 47zm89 43-5 1v-2l16-17 9-11v1c0 14-14 24-20 28zm68-16c-2-1-1-5 4-16 2-5 7-13 15-20l2 9c0 18-13 24-21 27z"/></symbol>
<symbol id="sqlite" preserveAspectRatio="xMidYMid" viewBox="0 0 512 228"><defs><linearGradient x1="57.7%" x2="57.7%" y1="2%" y2="94.4%"><stop offset="0%" stop-color="#97D9F6"/><stop offset="92%" stop-color="#0F80CC"/><stop offset="100%" stop-color="#0F80CC"/></linearGradient></defs><path fill="currentColor" d="M194.5 112c-6.8 0-12.3 2-16.6 6.1-4.3 4-6.4 9.3-6.4 15.8a23.3 23.3 0 0 0 6.5 17c2.2 2.4 6.6 5.6 13.2 9.7 8 5 13.4 9 16 12 2.5 3.2 3.7 6.4 3.7 9.9 0 4.5-1.5 8.2-4.6 11a18 18 0 0 1-12.4 4 20.1 20.1 0 0 1-20.3-20.8h-2.5v22.9h2.5c.8-2.2 1.8-3.3 3.2-3.3.7 0 2.3.4 4.7 1.3 6 2.1 10.9 3.2 14.7 3.2a23 23 0 0 0 17-7 23.2 23.2 0 0 0 2.4-30.8c-3-4-9-8.6-18-14a59.5 59.5 0 0 1-15-11.3c-2.3-3-3.5-6.1-3.5-9.7 0-3.8 1.5-7 4.2-9.2 2.8-2.3 6.5-3.5 11-3.5 5.2 0 9.5 1.5 12.9 4.6 3.3 3 5.3 7.4 5.9 12.8h2.5V113h-2.3a6 6 0 0 1-.8 2c-.3.3-.7.4-1.4.4a17 17 0 0 1-4.3-1 38.6 38.6 0 0 0-12.3-2.3Zm82.4 0a44.6 44.6 0 0 0-39 22.2 43.5 43.5 0 0 0 4.5 50.2c7 8.2 15.3 13.3 25 15.3 2.1 1.1 5.3 4.1 9.4 9 4.7 5.3 8.6 9.3 11.9 11.6A35.6 35.6 0 0 0 311 227c5.3 0 10-.9 14-2.7l-.9-2.3a20.1 20.1 0 0 1-18.7-2.3c-3.6-2.5-8.3-7.1-13.8-14a47.6 47.6 0 0 0-5.4-6.1c10.6-2 19.3-7.2 26-15.4a42.8 42.8 0 0 0 10.2-28 42 42 0 0 0-13.2-31.4 44.8 44.8 0 0 0-32.4-12.9Zm51.4 0 .1 2.7c5.5 0 8.6 1.7 9.3 5 .3 1.1.4 3.3.4 6.4v59.6c0 4.5-.7 7.3-2 8.6-1.1 1.2-3.2 2-6.2 2.3l-.1 2.6h55.1l1.4-13.5h-2.5c-.7 3.7-2.3 6.3-5 7.8a30.5 30.5 0 0 1-14 2.3h-5.2c-6 0-9.5-2.2-10.5-6.6-.2-.9-.2-1.8-.2-2.8l.2-60.3c0-4.4.5-7.4 1.7-8.9 1.2-1.4 3.3-2.3 6.4-2.5l-.2-2.7h-28.7Zm-50.6 3.3a28 28 0 0 1 23 11.2 48 48 0 0 1 8.8 30.5c0 12.3-3 22.1-8.9 29.5a29 29 0 0 1-23.7 11c-9.5 0-17.2-3.8-23-11.4a47.1 47.1 0 0 1-8.9-29.6c0-12.5 3-22.5 9-30 5.9-7.5 13.8-11.2 23.7-11.2Zm126.9 12.8c-1.3 0-2.4.5-3.1 1.4-.8 1-1 2-.8 3.4a6 6 0 0 0 2.2 3.4c1.1 1 2.4 1.4 3.7 1.4 1.3 0 2.3-.5 3-1.4.7-1 1-2.1.7-3.4-.3-1.4-1-2.5-2-3.4a5.6 5.6 0 0 0-3.7-1.4Zm36.4 9.2c-2.3 8.8-7.3 13.5-14.9 14.3l.1 2.5h8.9l-.2 29.8c0 5.1.2 8.5.5 10.2 1 4.2 3.6 6.3 8.1 6.3 6.6 0 13.4-4 20.6-12l-2.2-1.8c-5.2 5.2-9.7 7.8-13.7 7.8-2.5 0-4-1.4-4.6-4.2l-.2-2.4v-33.7h13.7l-.2-4h-13.4v-12.8H441Zm52.4 11.2c-7.6 0-13.7 3.7-18.5 11a31.3 31.3 0 0 0-4.4 24.4 21 21 0 0 0 6.7 12.2 19 19 0 0 0 12.7 4.3c4.7 0 11.4-1.2 14.1-3.7 2.8-2.4 5.4-6.3 7.8-11.7l-2-2a20.6 20.6 0 0 1-17.1 10.5c-8 0-12.8-4.3-14.6-13l-.5-3.5a46 46 0 0 0 21.4-8c4.8-3.8 9.6-7.9 8.7-12.1a9.9 9.9 0 0 0-3.9-6c-2-1.6-7.4-2.4-10.4-2.4Zm-83 .3-16.3 3.8v2.9l5.7-.7c2.7 0 4.3 1.2 4.8 3.7.2.8.3 2 .4 3.4l-.2 26.8c0 3.7-.5 5.8-1.3 6.5-.8.6-3 1-6.6 1v2.5h25.9v-2.5c-3.7 0-6-.3-7-.9-1-.5-1.8-1.5-2.1-3-.2-1.2-.3-3.1-.4-5.7l.1-37.8h-3Zm78.9 5c1.6 0 3 .6 4.6 1.8a7 7 0 0 1 2.8 4c1.4 7-4.9 12-19 14.7a25 25 0 0 1 2.7-14.1c2.3-4.3 5.3-6.4 8.9-6.4Z"/><path fill="currentColor" d="M157.9 10H17C7.7 10 0 17.7 0 27v155.2c0 9.4 7.7 17.2 17.1 17.2h92.7c-1-46.2 14.7-135.7 48-189.5Z"/><path fill="currentColor" d="M152.8 15H17c-6.5 0-12 5.4-12 12v144c30.7-11.8 76.8-22 108.7-21.5a989.7 989.7 0 0 1 39-134.5Z"/><path fill="currentColor" d="M190.7 4.9c-9.6-8.6-21.3-5.2-32.8 5a81.4 81.4 0 0 0-5.1 5c-19.7 21-38 59.7-43.7 89.2a81.5 81.5 0 0 1 5.8 17.7l.8 3.5-.9-2.8a173.8 173.8 0 0 0-.8-2 172 172 0 0 0-6.4-12.1l-3.5 11c4.5 8.2 7.3 22.4 7.3 22.4l-1.4-4.1c-1-2.9-6-11.7-7.2-13.7-2 7.5-2.8 12.6-2.1 13.8 1.4 2.4 2.7 6.5 4 11a257.6 257.6 0 0 1 4.6 25c-.3 8.6-.1 17.6.5 25.7a91 91 0 0 0 4.7 24.8l1.5-.8a111 111 0 0 1-3.9-37c.9-22.5 6-49.5 15.6-77.7 16-42.5 38.4-76.6 58.8-93-18.6 17-43.8 71.4-51.4 91.6a365.7 365.7 0 0 0-18 64c6.2-19 26.4-27.2 26.4-27.2s9.8-12.2 21.4-29.6a210 210 0 0 0-22.1 6l-7.1 3s18.1-11 33.7-16C191 73.8 214.2 25.9 190.7 4.9"/></symbol>
<symbol id="storybook" preserveAspectRatio="xMidYMid" viewBox="0 0 256 319"><defs><path d="M9.872 293.324.012 30.574C-.315 21.895 6.338 14.54 15.005 14L238.494.032c8.822-.552 16.42 6.153 16.972 14.975.02.332.031.665.031.998v286.314c0 8.839-7.165 16.004-16.004 16.004-.24 0-.48-.005-.718-.016l-213.627-9.595c-8.32-.373-14.963-7.065-15.276-15.388Z"/></defs><mask id="b" fill="currentColor"><use xlink:href="#a"/></mask><use xlink:href="#a" fill="currentColor"/><path fill="currentColor" d="m188.665 39.127 1.527-36.716L220.884 0l1.322 37.863a2.387 2.387 0 0 1-3.864 1.96l-11.835-9.325-14.013 10.63a2.387 2.387 0 0 1-3.829-2.001Zm-39.251 80.853c0 6.227 41.942 3.243 47.572-1.131 0-42.402-22.752-64.684-64.415-64.684-41.662 0-65.005 22.628-65.005 56.57 0 59.117 79.78 60.249 79.78 92.494 0 9.052-4.433 14.426-14.184 14.426-12.705 0-17.729-6.49-17.138-28.552 0-4.786-48.458-6.278-49.936 0-3.762 53.466 29.548 68.887 67.665 68.887 36.935 0 65.892-19.687 65.892-55.326 0-63.36-80.961-61.663-80.961-93.06 0-12.728 9.455-14.425 15.07-14.425 5.909 0 16.546 1.042 15.66 24.801Z" mask="url(#b)"/></symbol>
<symbol id="tailwindcss" preserveAspectRatio="xMidYMid" viewBox="0 0 256 154"><defs><linearGradient x1="-2.778%" x2="100%" y1="32%" y2="67.556%"><stop offset="0%" stop-color="#2298BD"/><stop offset="100%" stop-color="#0ED7B5"/></linearGradient></defs><path fill="currentColor" d="M128 0C93.867 0 72.533 17.067 64 51.2 76.8 34.133 91.733 27.733 108.8 32c9.737 2.434 16.697 9.499 24.401 17.318C145.751 62.057 160.275 76.8 192 76.8c34.133 0 55.467-17.067 64-51.2-12.8 17.067-27.733 23.467-44.8 19.2-9.737-2.434-16.697-9.499-24.401-17.318C174.249 14.743 159.725 0 128 0ZM64 76.8C29.867 76.8 8.533 93.867 0 128c12.8-17.067 27.733-23.467 44.8-19.2 9.737 2.434 16.697 9.499 24.401 17.318C81.751 138.857 96.275 153.6 128 153.6c34.133 0 55.467-17.067 64-51.2-12.8 17.067-27.733 23.467-44.8 19.2-9.737-2.434-16.697-9.499-24.401-17.318C110.249 91.543 95.725 76.8 64 76.8Z"/></symbol>
<symbol id="testing-library" viewBox="0 0 256 256"><defs><radialGradient cx="50.279%" cy="49.847%" r="50.334%" fx="50.279%" fy="49.847%" gradientTransform="matrix(1 0 0 .99252 0 .004)"><stop offset="0%" stop-color="#E33332"/><stop offset="20%" stop-color="#E03330"/><stop offset="38%" stop-color="#D52E2C"/><stop offset="54%" stop-color="#C32827"/><stop offset="71%" stop-color="#A91F23"/><stop offset="86%" stop-color="#89181A"/><stop offset="100%" stop-color="#640E0E"/></radialGradient><radialGradient id="d" cx="50.879%" cy="49.585%" r="91.636%" fx="50.879%" fy="49.585%" gradientTransform="matrix(1 0 0 .41938 0 .288)"><stop offset="0%" stop-color="#F7B3C5"/><stop offset="19%" stop-color="#F7B0C2"/><stop offset="38%" stop-color="#F6A4B6"/><stop offset="58%" stop-color="#F390A5"/><stop offset="79%" stop-color="#E7728B"/><stop offset="99%" stop-color="#DC4D6C"/><stop offset="100%" stop-color="#DA4B6A"/></radialGradient><radialGradient id="e" cx="50.543%" cy="49.742%" r="56.122%" fx="50.543%" fy="49.742%" gradientTransform="matrix(.81559 0 0 1 .093 0)"><stop offset="0%" stop-color="#F7B3C5"/><stop offset="19%" stop-color="#F7B0C2"/><stop offset="38%" stop-color="#F6A4B6"/><stop offset="58%" stop-color="#F390A5"/><stop offset="79%" stop-color="#E7728B"/><stop offset="99%" stop-color="#DC4D6C"/><stop offset="100%" stop-color="#DA4B6A"/></radialGradient><radialGradient id="h" cx="51.992%" cy="49.582%" r="91.664%" fx="51.992%" fy="49.582%" gradientTransform="matrix(1 0 0 .41925 0 .288)"><stop offset="0%" stop-color="#F7B3C5"/><stop offset="19%" stop-color="#F7B0C2"/><stop offset="38%" stop-color="#F6A4B6"/><stop offset="58%" stop-color="#F390A5"/><stop offset="79%" stop-color="#E7728B"/><stop offset="99%" stop-color="#DC4D6C"/><stop offset="100%" stop-color="#DA4B6A"/></radialGradient><linearGradient id="b" x1=".003%" x2="100%" y1="49.969%" y2="49.969%"><stop offset="0%" stop-color="#F7B3C5"/><stop offset="19%" stop-color="#F7B0C2"/><stop offset="38%" stop-color="#F6A4B6"/><stop offset="58%" stop-color="#F390A5"/><stop offset="79%" stop-color="#E7728B"/><stop offset="99%" stop-color="#DC4D6C"/><stop offset="100%" stop-color="#DA4B6A"/></linearGradient><linearGradient id="c" x1=".025%" x2="100.015%" y1="26.463%" y2="26.463%"><stop offset="0%" stop-color="#F7B3C5"/><stop offset="19%" stop-color="#F7B0C2"/><stop offset="38%" stop-color="#F6A4B6"/><stop offset="58%" stop-color="#F390A5"/><stop offset="79%" stop-color="#E7728B"/><stop offset="99%" stop-color="#DC4D6C"/><stop offset="100%" stop-color="#DA4B6A"/></linearGradient><linearGradient id="f" x1="0%" x2="99.996%" y1="49.997%" y2="49.997%"><stop offset="0%" stop-color="#DA4B6A"/><stop offset="1%" stop-color="#DC4D6C"/><stop offset="21%" stop-color="#E7728B"/><stop offset="42%" stop-color="#F390A5"/><stop offset="62%" stop-color="#F6A4B6"/><stop offset="81%" stop-color="#F7B0C2"/><stop offset="100%" stop-color="#F7B3C5"/></linearGradient><linearGradient id="g" x1="-.004%" x2="99.975%" y1="26.478%" y2="26.478%"><stop offset="0%" stop-color="#DA4B6A"/><stop offset="1%" stop-color="#DC4D6C"/><stop offset="21%" stop-color="#E7728B"/><stop offset="42%" stop-color="#F390A5"/><stop offset="62%" stop-color="#F6A4B6"/><stop offset="81%" stop-color="#F7B0C2"/><stop offset="100%" stop-color="#F7B3C5"/></linearGradient></defs><path fill="currentColor" d="M249.81 103.82c6.297 24.527-20.754 53.25-54.587 45.112 43.093-31.342 23.391-71.489.616-90.748-24.695-20.888-.788-27.58 7.177-20.018-.192-15.257-53.91-11.809-6.924 37.184 24.14 25.164-4.337 80.83-38.261 38.5-.28-.384-.534-.786-.758-1.203 5.478-2.275 9.977-8.463 9.977-18.654a25.36 25.36 0 0 0-2.103-10.494c3.922-7.987 7.521-17.53 7.521-29.48C172.468 25.456 153.938 0 127.99 0c-25.95 0-44.478 25.457-44.478 54.018 0 11.95 3.609 21.504 7.53 29.491a25.278 25.278 0 0 0-2.102 10.515c0 10.19 4.488 16.378 9.977 18.653-.228.418-.485.82-.768 1.203-33.925 42.33-62.41-13.345-38.261-38.5 46.995-48.993-6.743-52.43-6.935-37.184 7.966-7.552 31.883-.86 7.177 20.018-22.774 19.209-42.456 59.366.617 90.748-33.824 8.139-60.864-20.584-54.587-45.111-10.978 20.22-2.84 58.456 40.738 65.837-46.389 10.646-32.429 74.703.233 64.451-28.012-1.648-24.898-33.889-13.566-43.594 12.535-10.747 28.385-3.175 57.286-8.018-.314 26.024 25.029 40.006 11.736 54.908-14.082 15.772-33.359-1.263-30.387-16.762-13.444 27.823 24.837 49.964 41.618 17.652 12.929-24.86-21.43-69.76 14.152-69.76s1.213 44.849 14.152 69.76c16.78 32.352 55.062 10.17 41.617-17.652 2.942 15.509-16.305 32.534-30.376 16.762-13.233-14.942 12.04-28.925 11.766-54.948 28.89 4.843 44.741-2.74 57.266 8.017 11.352 9.706 14.455 41.947-13.556 43.595 32.712 10.292 46.662-53.776.253-64.452 43.548-7.37 51.696-45.617 40.718-65.827"/><path fill="currentColor" d="M34.1 192.486c12.525-10.747 26.91-1.345 56.78-9.999 0 0 .415-7.987.8-13.911-9.098 6.854-25.737 5.964-39.626 7.997-45.712 6.703-35.563 61.61-4.923 57.566-22.674-3.72-24.372-31.937-13.03-41.653"/><path fill="currentColor" d="M93.438 153.137c5.055-7.815 5.682-20.412-4.538-8.957-34.532 38.691-94.446 7.077-82.71-40.35-12.635 17.157-6.57 62.016 40.738 65.827 11.878-3.943 36.331-.89 46.51-16.52"/><path fill="currentColor" d="M60.757 148.932s12.13-1.244 19.995-10.485c-31.974 11.89-58.206-39.682-18.196-74.541C93.671 36.83 62 26.155 52.923 38.166c3.346-3.306 30.457-1.436 5.752 19.451-22.735 19.26-46.824 59.245 2.082 91.315"/><path fill="currentColor" d="M150.987 242.652c-13.313-14.902 0-28.359 2.446-51.844 1.618-15.843-4.296-33.364-25.433-33.364s-27.06 17.551-25.433 33.364c2.416 23.485 15.749 36.942 2.446 51.844-14.071 15.762-40.384-.667-32.783-22.02-18.71 31.069 28.78 50.41 45.56 18.107 12.92-24.87-25.373-68.455 10.21-68.455s-2.71 43.585 10.21 68.455c16.78 32.302 64.26 12.962 45.55-18.107 7.591 21.353-18.702 37.772-32.773 22.02"/><path fill="currentColor" d="M203.946 176.583c-13.899-2.022-30.548-1.153-39.626-8.007.395 5.924.8 13.921.8 13.921 29.86 8.644 44.245-.768 56.77 9.989 11.341 9.706 9.643 37.933-13.071 41.613 30.68 4.084 40.839-50.823-4.873-57.516"/><path fill="currentColor" d="M249.81 103.82c11.736 47.417-48.178 79.051-82.72 40.34-10.22-11.455-9.623 1.152-4.528 8.967 10.179 15.63 34.622 12.577 46.5 16.52 47.318-3.801 53.383-48.67 40.748-65.827"/><path fill="currentColor" d="M175.248 138.447c7.865 9.241 19.985 10.485 19.985 10.485 48.906-32.03 24.817-72.065 2.022-91.315-24.716-20.887 2.395-22.757 5.741-19.451-9.098-12.011-40.748-1.335-9.633 25.74 40.08 34.86 13.849 86.43-18.115 74.541"/><path fill="currentColor" d="M141.141 35.537c0 7.886-13.141 7.886-13.141 0s13.141-7.876 13.141 0m-20.692 7.219c0 5.429-9.027 5.429-9.027 0 0-5.43 9.027-5.43 9.027 0m5.762-24.972c0 5.439-9.037 5.439-9.037 0 0-5.44 9.037-5.389 9.037 0m-18.823 38.53c0 2.719-4.518 2.719-4.518 0 0-2.72 4.518-2.72 4.518 0m.86-26.691c0 3.76-6.248 3.76-6.248 0 0-3.761 6.248-3.751 6.248 0m17.963 33.07c0 3.77-6.247 3.77-6.247 0 0-3.771 6.247-3.741 6.247 0" opacity=".3"/><path fill="currentColor" d="M111.947 93.993c0 14.337-16.254 14.337-16.254 0 0-14.336 16.254-14.336 16.254 0"/><path fill="currentColor" d="M103.618 90.344a2.507 2.507 0 1 1-4.994 0 2.507 2.507 0 1 1 4.994 0"/><path fill="currentColor" d="M160.348 93.993c0 14.337-16.255 14.337-16.255 0 0-14.336 16.255-14.336 16.255 0"/><path fill="currentColor" d="M151.968 90.344a2.507 2.507 0 1 1-4.994 0 2.507 2.507 0 1 1 4.994 0"/><path fill="currentColor" d="M120.449 122.524c0 8.169-.677 14.781-1.456 14.781-.778 0-1.405-6.612-1.395-14.77.01-8.16.677-14.782 1.466-14.782.788 0 1.405 6.602 1.385 14.771"/><ellipse cx="128.263" cy="122.514" fill="currentColor" rx="1.072" ry="17.359"/><path fill="currentColor" d="M138.392 122.332c0 7.967-.647 14.427-1.415 14.427-.769 0-1.345-6.44-1.335-14.417.01-7.977.667-14.427 1.415-14.427s1.365 6.45 1.335 14.417"/><path fill="currentColor" d="M199.044 145.1c-1.678-2.224 8.087-9.564 9.785-7.33 1.698 2.234-8.117 9.564-9.785 7.33"/><path fill="currentColor" d="M201.47 143.725c-.758-1.011 4.59-5.055 5.357-4.044.769 1.01-4.589 5.065-5.357 4.044"/><path fill="currentColor" d="M204.826 135.323c-2.022-1.94 5.408-9.574 7.41-7.633 2.001 1.941-5.449 9.585-7.41 7.633"/><path fill="currentColor" d="M206.726 133.837c-.92-.89 3.144-5.055 4.044-4.175.9.88-3.134 5.065-4.044 4.175"/><path fill="currentColor" d="M215.35 121.16c-2.67-.82.434-11 3.102-10.182 2.67.82-.485 11.01-3.103 10.181"/><path fill="currentColor" d="M216.39 118.955c-1.223-.374.485-5.934 1.688-5.57 1.203.364-.485 5.944-1.688 5.57"/><path fill="currentColor" d="M188.046 144.726c-1.183-2.528 9.542-7.542 10.715-5.005 1.172 2.538-9.543 7.532-10.715 5.005"/><path fill="currentColor" d="M190.674 143.917c-.536-1.163 5.317-3.902 5.863-2.75.546 1.153-5.388 3.903-5.863 2.75"/><path fill="currentColor" d="M214.935 130.309c-2.335-1.507 3.447-10.454 5.772-8.927 2.325 1.526-3.417 10.443-5.772 8.927"/><path fill="currentColor" d="M216.562 128.479c-1.071-.698 2.093-5.58 3.154-4.893 1.061.687-2.092 5.58-3.154 4.893"/><path fill="currentColor" d="M171.78 159.112c1.082-2.76 11.12 1.193 10.11 3.964-1.012 2.77-11.201-1.193-10.11-3.964"/><path fill="currentColor" d="M173.924 160.336c.495-1.264 6.004.91 5.52 2.163-.486 1.254-6.026-.87-5.52-2.163"/><path fill="currentColor" d="M185.923 162.358c.758-3.448 11.12-1.153 10.371 2.295-.748 3.447-11.14 1.152-10.371-2.295"/><path fill="currentColor" d="M188.177 163.369c.354-1.587 6.065-.324 5.681 1.243-.384 1.567-6.035.273-5.681-1.243"/><path fill="currentColor" d="M163.006 147.102c2.548-2.81 11.302 5.166 8.765 7.956-2.538 2.79-11.312-5.156-8.765-7.956"/><path fill="currentColor" d="M164.664 149.215c1.173-1.284 5.954 3.083 4.792 4.357-1.163 1.274-5.954-3.033-4.792-4.357"/><path fill="currentColor" d="M199.883 166.23c0-2.406 8.976-2.224 8.926.182-.05 2.406-8.987 2.234-8.926-.182"/><path fill="currentColor" d="M201.884 166.584c0-1.112 4.903-1.011 4.893.08-.01 1.093-4.913 1.012-4.893-.08"/><path fill="currentColor" d="M166.726 175.703c.758-3.447 11.12-1.152 10.382 2.295-.738 3.448-11.14 1.153-10.382-2.295"/><path fill="currentColor" d="M168.98 176.664c.354-1.588 6.066-.334 5.682 1.243-.384 1.577-6.035.314-5.681-1.243"/><path fill="currentColor" d="M121.692 164.45c0-3.528 12.555-3.7 12.606-.161.05 3.538-12.555 3.7-12.606.162"/><path fill="currentColor" d="M124.553 164.865c0-1.617 6.864-1.708 6.894-.101.03 1.608-6.874 1.709-6.894.101"/><path fill="currentColor" d="M137.957 168.677c2.456-2.538 10.109 4.893 7.612 7.42-2.497 2.528-10.068-4.883-7.612-7.42"/><path fill="currentColor" d="M139.362 170.678c1.142-1.162 5.297 2.902 4.185 4.044-1.112 1.143-5.297-2.901-4.185-4.044"/><path fill="currentColor" d="M150.118 178.716c3.518.192 2.931 10.818-.597 10.626-3.528-.192-2.931-10.808.597-10.626"/><path fill="currentColor" d="M149.531 181.092c1.618.09 1.294 5.904-.303 5.813-1.597-.09-1.304-5.904.303-5.813"/><path fill="currentColor" d="M144.063 189.443c3.457.707 1.334 11.12-2.123 10.443-3.457-.677-1.334-11.14 2.123-10.443"/><path fill="currentColor" d="M143.163 191.677c1.587.334.425 6.066-1.152 5.722-1.577-.343-.435-6.005 1.152-5.722"/><path fill="currentColor" d="M147.48 200.533c3.457.708 1.334 11.122-2.123 10.434-3.458-.687-1.335-11.131 2.122-10.434"/><path fill="currentColor" d="M146.56 202.798c1.587.324.434 6.066-1.153 5.712-1.587-.354-.414-6.035 1.153-5.712"/><path fill="currentColor" d="M139.564 212.1c3.447.697 1.335 11.12-2.122 10.423-3.458-.698-1.355-11.131 2.122-10.424"/><path fill="currentColor" d="M138.634 214.364c1.597.334.435 6.066-1.142 5.712-1.577-.354-.394-6.035 1.142-5.712"/><path fill="currentColor" d="M141.525 224.292c3.518.132 3.124 10.767-.404 10.636-3.528-.131-3.134-10.767.404-10.636"/><path fill="currentColor" d="M140.98 226.688c1.627.071 1.405 5.884-.203 5.824-1.607-.061-1.395-5.884.203-5.824"/><path fill="currentColor" d="M139.766 239.356c2.74-2.224 8.35 4.691 5.6 6.916-2.749 2.224-8.339-4.702-5.6-6.916"/><path fill="currentColor" d="M140.686 241.216c1.264-1.01 4.327 2.77 3.033 3.782-1.294 1.01-4.276-2.77-3.033-3.782"/><path fill="currentColor" d="M149.006 245.908c1.415-2.568 7.885 1.01 6.47 3.558-1.416 2.548-7.885-.99-6.47-3.558"/><path fill="currentColor" d="M150.29 247.04c.647-1.183 4.185.768 3.548 1.93-.637 1.164-4.195-.757-3.548-1.93"/><path fill="currentColor" d="M157.174 253.733c.212-2.66 6.56-2.144 6.338.515-.223 2.66-6.56 2.134-6.338-.515"/><path fill="currentColor" d="M158.579 254.178c.1-1.214 3.568-.94 3.477.273-.09 1.213-3.578.92-3.477-.273"/><path fill="currentColor" d="M166.05 252.145c-.567-2.365 5.053-3.73 5.64-1.364.586 2.365-5.065 3.73-5.64 1.364"/><path fill="currentColor" d="M167.424 252.125c-.253-1.071 2.83-1.82 3.093-.758.263 1.062-2.86 1.84-3.093.758"/><path fill="currentColor" d="M174.56 252.338c-.93-2.255 4.438-4.48 5.358-2.225.92 2.255-4.407 4.429-5.357 2.225"/><path fill="currentColor" d="M175.885 252.065c-.415-1.011 2.517-2.235 2.941-1.224.425 1.011-2.517 2.255-2.941 1.224"/><path fill="currentColor" d="M179.352 246.332c-1.78-1.658 2.184-5.914 3.953-4.256 1.769 1.658-2.174 5.914-3.953 4.256"/><path fill="currentColor" d="M180.474 245.574c-.809-.768 1.345-3.094 2.153-2.336.809.759-1.344 3.094-2.153 2.336"/><path fill="currentColor" d="M185.892 238.73c-2.335-.668-.717-6.259 1.618-5.571 2.335.687.707 6.258-1.618 5.57"/><path fill="currentColor" d="M186.55 237.557c-1.011-.314-.183-3.367.879-3.033 1.061.333.212 3.356-.88 3.033"/><path fill="currentColor" d="M179.635 184.165c.303-3.508 10.897-2.598 10.584.93-.313 3.529-10.897 2.599-10.584-.93"/><path fill="currentColor" d="M181.99 184.822c.152-1.617 5.934-1.102 5.793.496-.142 1.597-5.934 1.102-5.793-.496"/><path fill="currentColor" d="M192.352 180.465c.07-3.468 10.695-3.255 10.614.222-.08 3.478-10.695 3.256-10.614-.222"/><path fill="currentColor" d="M194.717 180.96c0-1.597 5.843-1.466 5.813.112-.03 1.577-5.813 1.506-5.813-.112"/><path fill="currentColor" d="M204.391 184.863c.758-3.336 10.018-1.223 9.23 2.133-.789 3.357-10.008 1.223-9.23-2.133"/><path fill="currentColor" d="M206.383 185.773c.353-1.527 5.408-.364 5.054 1.152-.354 1.517-5.408.384-5.054-1.152"/><path fill="currentColor" d="M217.25 185.116c1.566-3.033 9.3.93 7.712 4.044-1.587 3.114-9.28-.981-7.712-4.044"/><path fill="currentColor" d="M218.796 186.41c.728-1.406 4.933.788 4.236 2.163-.698 1.375-4.954-.768-4.236-2.163"/><path fill="currentColor" d="M225.397 193.87c2.558-1.152 5.49 5.34 2.922 6.492-2.568 1.152-5.49-5.328-2.922-6.491"/><path fill="currentColor" d="M225.73 195.499c1.173-.536 2.77 3.033 1.618 3.538-1.152.506-2.79-3.023-1.617-3.538"/><path fill="currentColor" d="M232.564 201.706c2.8 0 2.78 7.128 0 7.077-2.78-.05-2.81-7.087 0-7.077"/><path fill="currentColor" d="M232.19 203.324c1.304 0 1.284 3.892 0 3.892s-1.274-3.902 0-3.892"/><path fill="currentColor" d="M229.825 210.886c2.497.455 1.324 6.835-1.183 6.36-2.507-.476-1.334-6.795 1.183-6.36"/><path fill="currentColor" d="M229.228 212.302c1.163.222.516 3.7-.626 3.488-1.143-.213-.526-3.7.626-3.488"/><path fill="currentColor" d="M230.098 220.117c2.021 1.122-.85 6.238-2.871 5.055-2.022-1.183.849-6.198 2.87-5.055"/><path fill="currentColor" d="M229.228 221.118c.92.525-.647 3.316-1.567 2.79-.92-.526.637-3.306 1.567-2.79"/><path fill="currentColor" d="M224.093 226.91c1.405 1.366-2.072 4.945-3.477 3.56-1.405-1.386 2.072-4.944 3.477-3.56"/><path fill="currentColor" d="M223.133 227.538c.647.636-1.264 2.578-1.9 1.95-.638-.626 1.253-2.577 1.9-1.95"/><path fill="currentColor" d="M210.598 164.774c-.799-3.367 9.543-5.823 10.351-2.436.809 3.386-9.542 5.833-10.351 2.436"/><path fill="currentColor" d="M213.054 164.663c-.364-1.557 5.277-2.892 5.651-1.355.374 1.537-5.297 2.892-5.65 1.355"/><path fill="currentColor" d="M223.85 165.684c-1.01-2.881 9.017-6.4 10.028-3.508 1.011 2.891-9.027 6.41-10.028 3.508"/><path fill="currentColor" d="M226.246 165.26c-.465-1.335 5.055-3.246 5.49-1.932.434 1.315-5.025 3.256-5.49 1.931"/><path fill="currentColor" d="M232.898 158.122c-2.022-2.275 5.822-9.423 7.885-7.158 2.062 2.264-5.833 9.422-7.885 7.158"/><path fill="currentColor" d="M234.94 156.787c-.94-1.01 3.376-4.944 4.306-3.923.93 1.022-3.366 4.954-4.306 3.923"/><path fill="currentColor" d="M245.766 150.792c-2.557-1.699 3.356-10.555 5.904-8.857 2.547 1.699-3.377 10.555-5.904 8.857"/><path fill="currentColor" d="M247.414 149.002c-1.163-.788 2.072-5.61 3.224-4.852 1.153.758-2.062 5.62-3.224 4.852"/><path fill="currentColor" d="M249.395 138.164c-2.87-1.081.91-11.03 3.76-9.958 2.851 1.072-.91 11.05-3.76 9.958"/><path fill="currentColor" d="M250.608 136.072c-1.314-.506.758-5.945 2.022-5.45 1.263.496-.718 5.925-2.022 5.45"/><path fill="currentColor" d="M254.682 124.425c-2.244.253-3.103-7.573-.86-7.825 2.245-.253 3.114 7.572.86 7.825"/><path fill="currentColor" d="M254.773 122.625c-1.011.101-1.486-4.175-.475-4.276 1.01-.101 1.506 4.155.475 4.276"/><path fill="currentColor" d="M222.284 113.04c-2.76-.333-1.466-10.908 1.294-10.554 2.76.354 1.465 10.899-1.294 10.555"/><path fill="currentColor" d="M222.93 110.695c-1.273-.151-.555-5.934.698-5.783 1.254.152.566 5.935-.697 5.783"/><path fill="currentColor" d="M218.15 104.579c-2.77.232-3.63-10.383-.84-10.606 2.79-.222 3.63 10.383.84 10.606"/><path fill="currentColor" d="M218.31 102.142c-1.273.101-1.728-5.692-.464-5.803 1.263-.111 1.739 5.712.465 5.803"/><path fill="currentColor" d="M221.131 91.375c-2.527 1.163-6.944-8.513-4.407-9.675 2.537-1.163 6.955 8.522 4.407 9.675"/><path fill="currentColor" d="M220.454 89.04c-1.152.525-3.568-4.752-2.426-5.288 1.142-.536 3.588 4.802 2.426 5.287"/><path fill="currentColor" d="M212.72 83.59c-2.274 1.274-7.075-7.38-4.79-8.644 2.284-1.264 7.085 7.37 4.79 8.644"/><path fill="currentColor" d="M211.902 81.477c-1.01.587-3.66-4.135-2.618-4.721 1.041-.587 3.69 4.135 2.618 4.721"/><path fill="currentColor" d="M211.164 72.924c-1.94 1.517-7.52-5.641-5.56-7.168 1.961-1.527 7.531 5.611 5.56 7.168"/><path fill="currentColor" d="M210.153 71.104c-.89.698-3.942-3.215-3.032-3.912.91-.698 3.932 3.215 3.032 3.912"/><path fill="currentColor" d="M201.793 68.567c-1.87 1.627-7.793-5.248-5.913-6.865 1.88-1.618 7.763 5.247 5.913 6.865"/><path fill="currentColor" d="M200.651 66.807c-.85.749-4.043-3.033-3.235-3.75.809-.718 4.104 3.012 3.235 3.75"/><path fill="currentColor" d="M197.538 59.407c-1.689 1.456-6.53-4.166-4.832-5.621 1.698-1.456 6.53 4.155 4.832 5.62"/><path fill="currentColor" d="M196.658 57.94c-.778.668-3.427-2.405-2.648-3.032.778-.627 3.416 2.376 2.648 3.033"/><path fill="currentColor" d="M189.42 57.597c-1.9 1.153-5.752-5.186-3.83-6.349 1.92-1.163 5.761 5.176 3.83 6.35"/><path fill="currentColor" d="M188.794 56.01c-.86.526-2.972-2.932-2.103-3.468.87-.536 2.972 2.942 2.103 3.468"/><path fill="currentColor" d="M188.652 49.984c-2.133.627-3.78-4.873-1.627-5.51 2.153-.637 3.75 4.863 1.627 5.51"/><path fill="currentColor" d="M188.51 48.65c-1.01.293-1.87-2.72-.889-3.033.98-.314 1.87 2.74.89 3.033"/><path fill="currentColor" d="M182.738 43.858c-2.102-.738-.202-6.158 1.911-5.41 2.113.749.202 6.168-1.91 5.41"/><path fill="currentColor" d="M183.436 42.725c-1.01-.323.08-3.296 1.01-2.952.93.344-.05 3.286-1.01 2.952"/><path fill="currentColor" d="M188.086 37.59c-.354-2.205 5.307-3.094 5.66-.88.355 2.214-5.316 3.114-5.66.88"/><path fill="currentColor" d="M189.41 37.67c-.162-1.01 2.942-1.486 3.093-.485.152 1-2.931 1.496-3.093.485"/><path fill="currentColor" d="M56.966 145.1c1.668-2.224-8.087-9.564-9.795-7.33-1.708 2.234 8.117 9.564 9.795 7.33"/><path fill="currentColor" d="M54.53 143.725c.758-1.011-4.59-5.055-5.357-4.044-.769 1.01 4.589 5.065 5.357 4.044"/><path fill="currentColor" d="M51.174 135.323c2.022-1.94-5.408-9.574-7.41-7.633-2.001 1.941 5.449 9.585 7.41 7.633"/><path fill="currentColor" d="M49.274 133.837c.92-.89-3.144-5.055-4.044-4.175-.9.88 3.134 5.065 4.044 4.175"/><path fill="currentColor" d="M40.65 121.16c2.67-.82-.434-11-3.102-10.182-2.67.82.485 11.01 3.103 10.181"/><path fill="currentColor" d="M39.61 118.955c1.223-.374-.485-5.934-1.688-5.57-1.203.364.485 5.944 1.688 5.57"/><path fill="currentColor" d="M67.965 144.726c1.172-2.528-9.553-7.542-10.726-5.005-1.172 2.538 9.543 7.532 10.726 5.005"/><path fill="currentColor" d="M65.377 143.917c.536-1.163-5.317-3.902-5.863-2.75-.546 1.153 5.337 3.903 5.863 2.75"/><path fill="currentColor" d="M41.065 130.309c2.335-1.507-3.447-10.454-5.772-8.927-2.325 1.526 3.417 10.443 5.772 8.927"/><path fill="currentColor" d="M39.438 128.479c1.071-.698-2.093-5.58-3.154-4.893-1.061.687 2.092 5.58 3.154 4.893"/><path fill="currentColor" d="M84.694 158.81c-1.192-3.034-12.565 1.415-11.372 4.478 1.193 3.063 12.575-1.426 11.372-4.479"/><path fill="currentColor" d="M82.278 160.214c-.556-1.405-6.772 1.011-6.237 2.437.536 1.426 6.783-1.051 6.237-2.437"/><path fill="currentColor" d="M70.077 162.358c-.758-3.448-11.12-1.153-10.371 2.295.748 3.447 11.14 1.152 10.371-2.295"/><path fill="currentColor" d="M67.823 163.369c-.354-1.587-6.065-.324-5.681 1.243.384 1.567 6.035.273 5.681-1.243"/><path fill="currentColor" d="M92.994 147.102c-2.548-2.81-11.302 5.166-8.765 7.956 2.538 2.79 11.312-5.156 8.765-7.956"/><path fill="currentColor" d="M91.336 149.215c-1.173-1.284-5.954 3.083-4.792 4.357 1.163 1.274 5.954-3.033 4.792-4.357"/><path fill="currentColor" d="M57.613 165.957c-.07-2.588-9.239-2.457-9.158.142.08 2.598 9.229 2.466 9.158-.142"/><path fill="currentColor" d="M55.551 166.321c0-1.193-5.054-1.102-5.054.07 0 1.174 5.084 1.123 5.054-.07"/><path fill="currentColor" d="M89.274 175.703c-.758-3.447-11.12-1.152-10.382 2.295.738 3.448 11.14 1.153 10.382-2.295"/><path fill="currentColor" d="M87.02 176.664c-.354-1.588-6.066-.334-5.682 1.243.384 1.577 6.035.314 5.681-1.243"/><path fill="currentColor" d="M118.589 169.334c-2.022-2.892-10.736 3.205-8.714 6.066 2.022 2.861 10.736-3.165 8.714-6.066"/><path fill="currentColor" d="M116.88 171.083c-.94-1.325-5.69 2.022-4.78 3.326.909 1.304 5.69-2.012 4.78-3.326"/><path fill="currentColor" d="M105.882 178.716c-3.518.192-2.931 10.818.597 10.626 3.528-.192 2.931-10.808-.597-10.626"/><path fill="currentColor" d="M106.469 181.092c-1.618.09-1.294 5.904.303 5.813 1.597-.09 1.304-5.904-.303-5.813"/><path fill="currentColor" d="M111.937 189.443c-3.457.707-1.334 11.12 2.123 10.443 3.457-.677 1.334-11.14-2.123-10.443"/><path fill="currentColor" d="M112.837 191.677c-1.587.334-.425 6.066 1.152 5.722 1.577-.343.435-6.005-1.152-5.722"/><path fill="currentColor" d="M108.52 200.533c-3.457.708-1.334 11.122 2.123 10.434 3.458-.687 1.335-11.131-2.122-10.434"/><path fill="currentColor" d="M109.44 202.798c-1.587.324-.434 6.066 1.153 5.712 1.587-.354.414-6.035-1.153-5.712"/><path fill="currentColor" d="M116.436 212.1c-3.447.697-1.335 11.12 2.122 10.423 3.458-.698 1.355-11.131-2.122-10.424"/><path fill="currentColor" d="M117.366 214.364c-1.597.334-.435 6.066 1.142 5.712 1.577-.354.394-6.035-1.142-5.712"/><path fill="currentColor" d="M114.475 224.292c-3.508.132-3.124 10.767.404 10.636 3.528-.131 3.134-10.767-.404-10.636"/><path fill="currentColor" d="M115.02 226.688c-1.627.071-1.405 5.884.203 5.824 1.607-.061 1.395-5.884-.203-5.824"/><path fill="currentColor" d="M116.234 239.356c-2.74-2.224-8.35 4.691-5.6 6.916 2.749 2.224 8.339-4.702 5.6-6.916"/><path fill="currentColor" d="M115.314 241.216c-1.264-1.01-4.327 2.77-3.033 3.782 1.294 1.01 4.276-2.77 3.033-3.782"/><path fill="currentColor" d="M106.994 245.908c-1.415-2.568-7.885 1.01-6.47 3.558 1.416 2.548 7.885-.99 6.47-3.558"/><path fill="currentColor" d="M105.76 247.04c-.646-1.183-4.184.768-3.547 1.93.637 1.164 4.144-.757 3.548-1.93"/><path fill="currentColor" d="M98.826 253.733c-.212-2.66-6.56-2.144-6.338.515.223 2.66 6.56 2.134 6.338-.515"/><path fill="currentColor" d="M97.421 254.178c-.1-1.214-3.568-.94-3.477.273.09 1.213 3.578.92 3.477-.273"/><path fill="currentColor" d="M89.95 252.145c.567-2.365-5.053-3.73-5.64-1.364-.586 2.365 5.065 3.73 5.64 1.364"/><path fill="currentColor" d="M88.576 252.125c.253-1.071-2.83-1.82-3.093-.758-.263 1.062 2.86 1.84 3.093.758"/><path fill="currentColor" d="M81.44 252.338c.93-2.255-4.438-4.48-5.358-2.225-.92 2.255 4.407 4.429 5.357 2.225"/><path fill="currentColor" d="M80.115 252.065c.415-1.011-2.517-2.235-2.941-1.224-.425 1.011 2.517 2.255 2.941 1.224"/><path fill="currentColor" d="M76.648 246.332c1.78-1.658-2.184-5.914-3.953-4.256-1.769 1.658 2.174 5.914 3.953 4.256"/><path fill="currentColor" d="M75.526 245.574c.809-.768-1.345-3.094-2.153-2.336-.809.759 1.344 3.094 2.153 2.336"/><path fill="currentColor" d="M70.108 238.73c2.335-.668.717-6.259-1.618-5.571-2.335.687-.707 6.258 1.618 5.57"/><path fill="currentColor" d="M69.45 237.557c1.011-.314.183-3.367-.879-3.033-1.061.333-.212 3.356.88 3.033"/><path fill="currentColor" d="M76.365 184.165c-.303-3.508-10.897-2.598-10.584.93.313 3.529 10.897 2.599 10.584-.93"/><path fill="currentColor" d="M74.01 184.822c-.152-1.617-5.934-1.102-5.793.496.142 1.597 5.934 1.102 5.793-.496"/><path fill="currentColor" d="M63.648 180.465c-.07-3.468-10.695-3.255-10.614.222.08 3.478 10.695 3.256 10.614-.222"/><path fill="currentColor" d="M61.283 180.96c0-1.597-5.843-1.466-5.813.112.03 1.577 5.813 1.506 5.813-.112"/><path fill="currentColor" d="M51.609 184.863c-.758-3.336-10.008-1.223-9.23 2.133.779 3.357 10.008 1.223 9.23-2.133"/><path fill="currentColor" d="M49.617 185.773c-.353-1.527-5.408-.364-5.054 1.152.354 1.517 5.408.384 5.054-1.152"/><path fill="currentColor" d="M38.75 185.116c-1.566-3.033-9.3.93-7.712 4.044 1.587 3.114 9.28-.981 7.712-4.044"/><path fill="currentColor" d="M37.204 186.41c-.728-1.406-4.933.788-4.236 2.163.698 1.375 4.954-.768 4.236-2.163"/><path fill="currentColor" d="M30.603 193.87c-2.558-1.152-5.49 5.34-2.922 6.492 2.568 1.152 5.49-5.328 2.922-6.491"/><path fill="currentColor" d="M30.27 195.499c-1.173-.536-2.77 3.033-1.618 3.538 1.152.506 2.79-3.023 1.617-3.538"/><path fill="currentColor" d="M23.436 201.706c-2.8 0-2.78 7.128 0 7.077 2.78-.05 2.81-7.087 0-7.077"/><path fill="currentColor" d="M23.81 203.324c-1.304 0-1.284 3.892 0 3.892s1.284-3.902 0-3.892"/><path fill="currentColor" d="M26.175 210.886c-2.497.455-1.324 6.835 1.183 6.36 2.507-.476 1.334-6.795-1.183-6.36"/><path fill="currentColor" d="M26.772 212.302c-1.163.222-.516 3.7.626 3.488 1.143-.213.526-3.7-.626-3.488"/><path fill="currentColor" d="M25.902 220.117c-2.021 1.122.85 6.238 2.871 5.055 2.022-1.183-.849-6.198-2.87-5.055"/><path fill="currentColor" d="M26.772 221.118c-.92.525.647 3.316 1.567 2.79.92-.526-.637-3.306-1.567-2.79"/><path fill="currentColor" d="M31.907 226.91c-1.405 1.366 2.022 4.945 3.477 3.56 1.456-1.386-2.072-4.944-3.477-3.56"/><path fill="currentColor" d="M32.867 227.538c-.647.636 1.264 2.578 1.9 1.95.638-.626-1.253-2.577-1.9-1.95"/><path fill="currentColor" d="M45.402 164.774c.799-3.367-9.543-5.823-10.351-2.436-.809 3.386 9.542 5.833 10.351 2.436"/><path fill="currentColor" d="M42.946 164.663c.364-1.557-5.277-2.892-5.651-1.355-.374 1.537 5.297 2.892 5.65 1.355"/><path fill="currentColor" d="M32.15 165.684c1.01-2.881-9.017-6.4-10.028-3.508-1.011 2.891 9.027 6.41 10.028 3.508"/><path fill="currentColor" d="M29.754 165.26c.465-1.335-5.055-3.246-5.49-1.932-.434 1.315 5.025 3.256 5.49 1.931"/><path fill="currentColor" d="M23.102 158.122c2.022-2.275-5.822-9.423-7.885-7.158-2.062 2.264 5.833 9.422 7.885 7.158"/><path fill="currentColor" d="M21.06 156.787c.94-1.01-3.376-4.944-4.306-3.923-.93 1.022 3.366 4.954 4.306 3.923"/><path fill="currentColor" d="M10.234 150.792c2.557-1.699-3.356-10.555-5.904-8.857-2.547 1.699 3.377 10.555 5.904 8.857"/><path fill="currentColor" d="M8.586 149.002c1.163-.788-2.022-5.61-3.224-4.852-1.203.758 2.062 5.62 3.224 4.852"/><path fill="currentColor" d="M6.605 138.164c2.87-1.081-.91-11.03-3.76-9.958-2.851 1.072.91 11.05 3.76 9.958"/><path fill="currentColor" d="M5.392 136.072c1.314-.506-.758-5.945-2.022-5.45-1.263.496.718 5.925 2.022 5.45"/><path fill="currentColor" d="M1.318 124.425c2.244.253 3.103-7.573.86-7.825-2.245-.253-3.114 7.572-.86 7.825"/><path fill="currentColor" d="M1.227 122.625c1.011.101 1.486-4.175.475-4.276-1.01-.101-1.506 4.155-.475 4.276"/><path fill="currentColor" d="M33.716 113.04c2.76-.333 1.466-10.908-1.294-10.554-2.76.354-1.465 10.899 1.294 10.555"/><path fill="currentColor" d="M33.07 110.695c1.273-.151.555-5.934-.698-5.783-1.254.152-.566 5.935.697 5.783"/><path fill="currentColor" d="M37.85 104.579c2.77.232 3.63-10.383.84-10.606-2.79-.222-3.63 10.383-.84 10.606"/><path fill="currentColor" d="M37.69 102.142c1.273.101 1.728-5.692.464-5.803-1.263-.111-1.739 5.712-.465 5.803"/><path fill="currentColor" d="M34.869 91.375c2.527 1.163 6.944-8.513 4.407-9.675-2.537-1.163-6.955 8.522-4.407 9.675"/><path fill="currentColor" d="M35.546 89.04c1.152.525 3.568-4.752 2.426-5.288-1.142-.536-3.588 4.802-2.426 5.287"/><path fill="currentColor" d="M43.28 83.59c2.274 1.274 7.075-7.38 4.79-8.644-2.284-1.264-7.085 7.37-4.79 8.644"/><path fill="currentColor" d="M44.098 81.477c1.01.587 3.66-4.135 2.618-4.721-1.041-.587-3.69 4.135-2.618 4.721"/><path fill="currentColor" d="M44.836 72.924c1.94 1.517 7.52-5.641 5.56-7.168-1.961-1.527-7.531 5.611-5.56 7.168"/><path fill="currentColor" d="M45.847 71.104c.89.698 3.942-3.215 3.032-3.912-.91-.698-3.932 3.215-3.032 3.912"/><path fill="currentColor" d="M54.207 68.567c1.87 1.627 7.793-5.248 5.913-6.865-1.88-1.618-7.763 5.247-5.913 6.865"/><path fill="currentColor" d="M55.349 66.807c.85.749 4.043-3.033 3.235-3.75-.809-.718-4.104 3.012-3.235 3.75"/><path fill="currentColor" d="M58.462 59.407c1.689 1.456 6.53-4.166 4.832-5.621-1.698-1.456-6.53 4.155-4.832 5.62"/><path fill="currentColor" d="M59.342 57.94c.778.668 3.427-2.405 2.648-3.032-.778-.627-3.416 2.376-2.648 3.033"/><path fill="currentColor" d="M66.58 57.597c1.9 1.153 5.752-5.186 3.83-6.349-1.92-1.163-5.761 5.176-3.83 6.35"/><path fill="currentColor" d="M67.206 56.01c.86.526 2.972-2.932 2.103-3.468-.87-.536-2.972 2.942-2.103 3.468"/><path fill="currentColor" d="M67.348 49.984c2.133.627 3.78-4.873 1.627-5.51-2.153-.637-3.75 4.863-1.627 5.51"/><path fill="currentColor" d="M67.49 48.65c1.01.293 1.87-2.72.889-3.033-.98-.314-1.87 2.74-.89 3.033"/><path fill="currentColor" d="M73.262 43.858c2.102-.738.212-6.158-1.911-5.41-2.123.749-.202 6.168 1.91 5.41"/><path fill="currentColor" d="M72.564 42.725c1.01-.323-.08-3.296-1.01-2.952-.93.344.05 3.286 1.01 2.952"/><path fill="currentColor" d="M67.914 37.59c.354-2.205-5.307-3.094-5.66-.88-.355 2.214 5.316 3.114 5.66.88"/><path fill="currentColor" d="M66.59 37.67c.162-1.01-2.942-1.486-3.093-.485-.152 1 2.931 1.496 3.093.485"/></symbol>
<symbol id="typescript" preserveAspectRatio="xMidYMid" viewBox="0 0 256 256"><path fill="currentColor" d="M20 0h216c11.046 0 20 8.954 20 20v216c0 11.046-8.954 20-20 20H20c-11.046 0-20-8.954-20-20V20C0 8.954 8.954 0 20 0Z"/><path fill="currentColor" d="M150.518 200.475v27.62c4.492 2.302 9.805 4.028 15.938 5.179 6.133 1.151 12.597 1.726 19.393 1.726 6.622 0 12.914-.633 18.874-1.899 5.96-1.266 11.187-3.352 15.678-6.257 4.492-2.906 8.048-6.704 10.669-11.394 2.62-4.689 3.93-10.486 3.93-17.391 0-5.006-.749-9.394-2.246-13.163a30.748 30.748 0 0 0-6.479-10.055c-2.821-2.935-6.205-5.567-10.149-7.898-3.945-2.33-8.394-4.531-13.347-6.602-3.628-1.497-6.881-2.949-9.761-4.359-2.879-1.41-5.327-2.848-7.342-4.316-2.016-1.467-3.571-3.021-4.665-4.661-1.094-1.64-1.641-3.495-1.641-5.567 0-1.899.489-3.61 1.468-5.135s2.362-2.834 4.147-3.927c1.785-1.094 3.973-1.942 6.565-2.547 2.591-.604 5.471-.906 8.638-.906 2.304 0 4.737.173 7.299.518 2.563.345 5.14.877 7.732 1.597a53.669 53.669 0 0 1 7.558 2.719 41.7 41.7 0 0 1 6.781 3.797v-25.807c-4.204-1.611-8.797-2.805-13.778-3.582-4.981-.777-10.697-1.165-17.147-1.165-6.565 0-12.784.705-18.658 2.115-5.874 1.409-11.043 3.61-15.506 6.602-4.463 2.993-7.99 6.805-10.582 11.437-2.591 4.632-3.887 10.17-3.887 16.615 0 8.228 2.375 15.248 7.127 21.06 4.751 5.811 11.963 10.731 21.638 14.759a291.458 291.458 0 0 1 10.625 4.575c3.283 1.496 6.119 3.049 8.509 4.66 2.39 1.611 4.276 3.366 5.658 5.265 1.382 1.899 2.073 4.057 2.073 6.474a9.901 9.901 0 0 1-1.296 4.963c-.863 1.524-2.174 2.848-3.93 3.97-1.756 1.122-3.945 1.999-6.565 2.632-2.62.633-5.687.95-9.2.95-5.989 0-11.92-1.05-17.794-3.151-5.875-2.1-11.317-5.25-16.327-9.451Zm-46.036-68.733H140V109H41v22.742h35.345V233h28.137V131.742Z"/></symbol>
<symbol id="x-mark" fill="none" stroke="currentColor" stroke-width="1.5" class="w-6 h-6" data-slot="icon" viewBox="0 0 24 24"><path stroke-linecap="round" stroke-linejoin="round" d="M6 18 18 6M6 6l12 12"/></symbol>
</svg>
